<svg xmlns="http://www.w3.org/2000/svg" enable-background="new 0 0 1600 1200" viewBox="0 0 1600 1200" id="success"><g><path d="M837.4 521.5c-1.9.6-3.7 1.1-5.6 1.7 2.3-4.3 6.7-11 14.4-16.1 2.5-1.6 4.9-2.9 7-3.8 3.8-1.5 7.6-3 11.5-4.6-.9-.7-4.2-3.5-4-7.2 0-.4.1-.8.2-1.2 1.7-.8 4.2-1.6 6.9-.9 4 1 4.8 4.5 7.8 4.4 3-.1 3.2-3.7 7.6-4.8.5-.1 4.2-1 6.9 1.2.5.4 1.9 1.6 1.8 3-.1 2.8-5.3 4-5 5.3.3 1.7 8.7.7 9.6 3.5.2.7-.2 1.1 0 2.3.4 2.2 2.5 3.4 3 3.8 3.1 2.1 5.1 7.3 7 12.2 4 10.4 1.2 20.4-.5 26.5-1.7 6.1-2.9 10.5-6.5 12-4.2 1.8-9.2-1.4-13.4-4.1-7.5-4.9-18.1-12.3-30.8-22.5-5.3-.2-7.7-1.9-8.8-3.5-1.8-2.4-1.1-5.1-3.2-6.7-1.8-1.3-4.2-1-5.9-.5zM869.4 587.4c1.9-3.6 3.9-6.2 5.5-7.9 2.7-3 4.6-5 7.3-5.1 1.7 0 4 .8 4.7 2.4.6 1.8-.9 3.7-1.6 4.7-4.3 5.3-12.6 5.9-15.9 5.9z"></path><path fill="#a67f67" d="M840.9 521.1c-3 8.2-4.6 15.3-5.4 20.6-1 6.3-2 12.4-1.2 20.6.7 6.5 1.2 11.5 4.2 17.3 2.6 5 5.4 9.3 4.7 9.8-.5.4-2.3-1.2-3.8-2.5-.3.6-.8 1.4-1.3 2.5-1.4 3-1.1 4-1.9 5.4-1.8 3.4-5.3 2.7-6.6 5.4-1.3 2.7.9 6.4 2.2 8.5 1.4 2.4 6.3 10.4 14.2 9.8 4.9-.4 8.9-3.9 10.8-7.3 2.2-4 .2-5.5 2.2-11.4 1.6-4.8 4.4-8 7-11.1 2.5-2.9 3.5-3.4 7.3-7.3 3.5-3.6 6.2-6.7 7.9-8.9.7.4 4.4 2.2 8.2.6 4-1.6 5.2-5.5 6-7.9.6-1.8 1.8-5.4 0-7.6-.5-.7-1-.8-4.4-2.2-3.2-1.3-4.8-2-5.1-2.2-4-3-1.4-10.5-3.8-11.4-1.8-.7-3.4 3.7-7 3.8-3.5 0-6.9-4.1-8.2-7.9-1.6-4.4-.2-8-1.6-8.5-1.6-.6-3.7 4.2-7 3.8-1.5-.2-2.8-1.3-3.5-2.5-1.3-2.5.5-4.8-.6-5.7-1.2-1-3.4 1.1-6.3.9-3.1-.1-5.5-2.6-7-4.6zM869.6 752.4c.1 12.7 1.3 22.4 2.4 29.1 1.1 6.5 2.1 10.7 1.1 17.1-.8 4.8-2.1 6.6-3.1 14-.7 5-1.7 11.7.7 12.8.6.3 1.8.3 4.1-1.4-.3 4.7 1.5 9 4.7 10.8 2.3 1.2 4.8 1.1 5.7 1 .5 0 4.1-.3 6.1-2 5.3-4.6-.7-19.6-1.7-22-3.3-7.9-6-8.8-7.1-15.2-1-5.7.3-10 1-12.8 1.6-6.9 2.6-17.5-1-33.1-.6-.4-3.8-2.3-7.8-1.4-2.8.7-4.4 2.4-5.1 3.1zM837.5 961.5c3.7 8.5 7.5 17 11.2 25.5l12 4.2c.8-1.3 1.8-3.3 1.8-5.7 0-3.2-1.7-4.5-3.4-8.3-2.9-6.5-.5-8.2-3.4-12.8-.8-1.3-3.1-5-7.6-6-5.4-1.3-10 2.6-10.6 3.1zM702.3 942.8c-.4 5.2-.8 10.6-1.4 16.1-.7 6.6-1.4 12.9-2.2 19.1 1.9 2.8 3.9 5.5 5.8 8.3 2.7-6.7 5-8.3 6.7-8.3 2.1 0 3.9 2.3 4.7 1.7.5-.4 0-1.6-.3-3.1-.1-.8-.3-2.3.6-6.9 1.9-9.8 4.7-12.9 3.3-17.8-1.1-4-4.1-6.3-5-6.9-5.2-3.8-11.2-2.5-12.2-2.2zM734.5 467.6c-1.3-2-3.1-5.6-3.6-10.3-.2-2.1-.6-7.7 2.9-12.9 1.4-2.1 3.1-4.7 6.1-5.5 5.5-1.5 9.9 4.3 12.3 2.6 1.7-1.3.9-5.3 0-9.7-1.4-7-3.7-10.3-2.9-11 1-.8 6.4 3.2 10.3 8.4 6.1 8.2 5.9 15.9 7.4 27.1 1.6 11.2 2.1 5.3 15.5 56.9 1.1 4.3 2 7.8 2.6 10-2.3.1-5.8.4-9.7 1.9-4.9 1.9-8.2 4.7-10 6.5-1.2-7.4-2.9-16.7-4.8-27.5-2.4-13.2-4.2-21.7-8.1-32.3-.7-1.8-1.2-3.2-1.6-4.2-.3.5-3 4-7.8 4.2-5.2.3-8.3-3.8-8.6-4.2z"></path><path fill="#ff4f03" d="M773.5 526.7c.7 4.7 1.9 12.5 4.3 22.1 7.9 32.2 18 42.7 17.2 61.8-.4 9-2.9 13.4-10.8 31.2-38.6 87.2-32.5 103.7-29.6 109.7 6.4 13 18.8 18.7 22.6 20.4 25.8 11.8 52.4-3.3 55.9-5.4-.3-12.7.9-22.7 2.2-29.6 4-22.4 6-33.6 10.8-41.9 1.3-2.2 4.3-7.1 3.2-12.9-.8-4.4-3.6-7.7-5.9-9.7 3.7-9.8 6.3-10.9 7.5-10.8 4.1.3 6.2 13.8 7 20.4 1.9 12.2 3.7 24.6 5.4 37.1 1.3 9.6 2.6 19.1 3.8 28.5 4.7.4 9.3.7 14 1.1.8-15.4.8-32.5-.5-51.1-2.4-32.2-8.4-60.1-15.1-82.8-.6-.4-3.9-2.5-8.1-1.6-5.3 1.1-7.4 6-7.5 6.5-6.3 1.8-9.9.6-11.8-.5-5.9-3.5-9.7-14.2-10.8-21.5-.2-1.6-.5-4.4-2.7-6.5-2.1-1.9-4.9-2.2-7-2.2-8.5-15.8-16.8-33.2-24.2-52.2-1.7-4.3-3.3-8.6-4.8-12.9-1.2-.5-3.9-1.5-7.5-1-4.1.8-6.7 3-7.6 3.8zM705.2 988.3h-.8c-5.6-.2-8.1-4.6-10-4-2.3.6-1.3 7.1-2.4 14.1-1.4 8.7-4.4 7.8-9.6 21.7-1.5 3.9-4.4 12.3-4 22.9.2 6.2 1.3 6.7 1.6 6.8 3 1.1 9.1-9.6 16.9-21.3 5.1-7.7 12.9-18.8 23.5-31.9-.5-2.3-1.4-5.8-2.6-9.9-2.1-7.2-2.7-8.2-3.6-8.4-3.7-.8-8.5 9-9 10zM847.9 994.8c1.4 3.4 3.5 8.4 6.4 14.5 7.1 14.7 13.1 27.4 17.3 26.5 3.6-.7 4.4-11.3 4.4-15.7 0-4.8-.9-8.1-2.4-13.3-2.8-9.7-7.5-19.8-9.6-19.3-1.2.3-.8 3.5-2.4 4-2.3.7-4.5-4.9-7.6-4.8-1.8.1-3.8 1.8-6.1 8.1zM707.4 66.4c-5.8 7.5-14.1 20.2-19.1 37.8-7.6 26.7-3 49 0 62.4 2.6 11.8 6.8 29.7 20.8 47.6 6.3 8.1 12.8 13.8 17.5 17.5 2.7 5.8 5.5 11.7 8.2 17.5-1.5 6.7-4.3 15.5-9.8 24.6-4.1 6.7-9.4 13.2-8.8 13.7.9.8 12.6-13.2 16.4-10.9 2.8 1.7-.3 11.1 2.2 12 2.2.8 5.7-5.8 8.2-4.9 2.5.9 1.8 8.7 2.7 8.8 1.1.1 1.1-10.2 4.9-11.5 4.3-1.5 10.6 9.1 12 8.2 1.8-1.1-3.8-18.6-11.5-35-1.4-3.1-4.1-8.6-2.2-14.2 1.2-3.6 3.8-5.8 5.5-7.1 8-6.4 12.1-9.6 23-13.1 18.2-5.9 34.1-41.6 36.7-71.1.6-7 4.1-55.5-29.5-82.6-5.7-4.6-22-17.7-44.3-15.3-17.2 1.5-28.7 11.5-32.9 15.6z"></path><path stroke="#000" stroke-miterlimit="10" d="M714.6 230.5c-.1.2-1.7-.9-4.3-3-2.6-2.2-6.2-5.6-10.2-10.2-4-4.6-8.3-10.5-12.3-17.5s-7.6-15.3-10.1-24.2c-2.5-9-3.7-17.9-4-26-.3-8.1.4-15.4 1.4-21.4 1-6 2.3-10.8 3.4-14 1.1-3.2 1.9-4.9 2.1-4.9.2.1-.2 1.9-.9 5.2-.7 3.3-1.7 8-2.4 14-.7 5.9-1.1 13.1-.7 20.9.4 7.9 1.7 16.5 4.1 25.2 2.5 8.7 5.9 16.8 9.6 23.7 3.7 6.9 7.8 12.8 11.5 17.5 3.7 4.7 7 8.3 9.3 10.7 2.4 2.4 3.7 3.8 3.5 4zM749.2 239.2c.2.4-.7 1.2-2.3 2.1-1.6.9-4 1.8-6.9 2-3 .2-5.6-.7-7.2-1.9-1.6-1.2-2.1-2.4-1.7-2.7.3-.3 1.3.2 2.8.6 1.5.5 3.6.8 6 .7 2.4-.1 4.6-.6 6.3-.9 1.7-.3 2.8-.3 3 .1zM750.4 245.1c.3.3-.2 1.5-1.8 2.7-.7.6-1.8 1.3-3 1.8s-2.6.9-4.1 1.1c-1.5.2-3 .1-4.3-.1-1.3-.2-2.4-.6-3.3-1.1-1.8-.9-2.6-1.9-2.4-2.2.2-.4 1.4-.2 3.1 0 .8.1 1.8.2 2.9.3 1.1 0 2.3 0 3.5-.1 1.2-.2 2.4-.4 3.5-.7 1-.3 2-.6 2.8-1 1.8-.6 2.8-1.1 3.1-.7zM739.9 284.3c.2.1-.3 1.2-1.4 3l-.9 1.5c-.4.7-1 1.6-1.9 2-.9.4-2.2 0-2.9-.9-.4-.4-.6-1-.8-1.7-.1-.3-.1-.7-.1-1v-.8c.1-1.9.1-3.8-.1-6v-.5c0-.1 0-.2-.1-.3 0-.2-.2-.4-.4-.4-.5.1-.4.2-1.7 1.1-2 1.5-4.1 3.1-6.3 4.7-1.3 1-2.6 1.9-4 2.9-1 .7-2.1 1.5-2.9 1.8-.8.3-1.5.5-2.2.5-.3 0-.7 0-1.1-.2-.2-.1-.4-.1-.6-.2l-.3-.1c-.1 0-.2-.1-.2-.2.1-.6.1-1.2.2-1.7l.1-.9c.2-.5.6-1 .9-1.6.6-1 1.2-2.1 1.8-3.1 1.4-2.4 2.8-4.7 4.1-6.9 2.6-4.3 4.8-8.1 6.5-11.4 3.4-6.6 4.4-11.2 4.9-11.1.2 0 .2 1.2-.1 3.4-.4 2.1-1.2 5.1-2.7 8.7-1.5 3.6-3.5 7.6-6 12-1.2 2.1-2.5 4.4-3.8 6.7-.2.3-.3.6-.5.9l-.2.4c.1.1.3.1.5 0 .3-.1.6-.4.8-.5.9-.7 1.8-1.3 2.7-1.9 2.2-1.6 4.4-3.1 6.4-4.5.6-.4.8-.6 1.9-1.3.9-.5 1.8-.8 2.6-.6.9.2 1.5.9 1.8 1.7.2.4.2.9.3 1.3 0 .2 0 .5.1.7v.4c.1 2.3 0 4.5-.3 6.4 0 .2 0 .4-.1.6v.3c0 .2 0 .5.1.7.2.4.7.7 1.1.5.4-.2.6-.5 1-.8.4-.5.8-.9 1.1-1.3 1.7-1.6 2.5-2.4 2.7-2.3zM745.1 290.4c.1 0 .1.2.3.5.2.2.6.6.9.5l-.5.3c.4-1.2.9-2.8 1.7-4.8.4-1 .8-2.1 1.3-3.2.2-.4.4-.9.6-1.3.2-.5.5-.8.8-1.1.3-.3.9-.4 1.3-.3.2 0 .5.2.7.3.2.1.5.2.7.3.2.1.5.3.7.5l.3.2.2.2c.3.2.6.4.9.7l1.8 1.5c1.2 1 2.4 2.2 3.6 3.3.6.5 1.4 1.3 1.4 1.2.2.1.3.3.5.3.2-.1.2-.4.2-.6-.1-.5-.2-1-.3-1.4-1.9-9.2-5.1-17.2-7.3-23-2.2-5.8-3.5-9.5-3.1-9.7.4-.2 2.4 3.1 5.2 8.8 2.7 5.6 6.3 13.7 8.3 23.3.1.2.1.5.1.7l.2.9c.2.8.3 1.6.2 2.3 0 .7-.2 1.3-.5 1.8s-.8 1-1.4 1.1c-.6.2-1.1.1-1.7-.1-.3-.1-.6-.3-.9-.5-.3-.1-.6-.4-.9-.6-.5-.4-1.2-1.1-1.5-1.3l-.9-.9-3.4-3.4c-.5-.5-1.1-1-1.6-1.5-.3-.2-.5-.4-.8-.6l-.3-.3-.1-.1c-.1-.1-.2-.2-.3-.2-.1-.1-.3-.1-.4 0-.1.1-.1.2-.2.3l-.1.2-.1.1s0 .1-.1.1c-.6 1.1-1.1 2.1-1.6 3.1-1 1.9-1.8 3.4-2.5 4.4l-.2.4h-.3c-.5-.1-.9-.4-1.1-.7-.2-.3-.3-.6-.3-.8.2-.7.4-.9.5-.9zM772.8 225.8c-.2-.2 3-3 8.2-8.7 2.6-2.8 5.6-6.4 8.9-10.7 3.2-4.3 6.7-9.5 9.9-15.4 3.3-6 6.3-12.8 8.8-20.4 1.3-3.8 2.3-7.8 3.1-11.9.4-2.1.8-4.2 1.1-6.4.1-1.1.3-2.2.4-3.3l.3-3.3c.3-4.5.4-9.1.1-13.7-.3-4.7-.8-9.4-1.8-14.2-.9-4.8-2.2-9.6-4-14.3-1.7-4.7-3.7-9.4-6.3-13.9-5-9-11.5-16.8-18.4-23.8-3.4-3.4-7-6.5-11-8.8-3.9-2.3-8.2-4-12.4-5-8.6-2.1-17.2-1.7-24.9 0-7.7 1.7-14.5 4.9-20.2 8.4-5.7 3.6-10.5 7.5-14.4 11.3-3.9 3.7-7 7.3-9.4 10.2-4.9 5.9-7.2 9.5-7.4 9.3-.1-.1.4-1 1.4-2.8 1.1-1.7 2.7-4.3 5-7.3 2.3-3.1 5.3-6.8 9.1-10.7 3.8-3.9 8.6-8.1 14.4-11.9 5.8-3.8 12.8-7.2 20.9-9.1 8-1.9 17.1-2.4 26.2-.3 4.6 1 9.1 2.8 13.3 5.3 4.3 2.4 8.1 5.7 11.7 9.2 3.5 3.6 6.9 7.3 10.1 11.4 1.6 2 3.2 4.1 4.6 6.3.8 1.1 1.4 2.2 2.1 3.3.7 1.1 1.4 2.2 2 3.4 2.7 4.6 4.7 9.5 6.5 14.4 1.8 4.9 3.1 9.8 4 14.7 1 4.9 1.5 9.8 1.8 14.6.3 4.8.1 9.5-.2 14.1-.1 1.1-.2 2.3-.3 3.4-.1 1.1-.3 2.2-.5 3.4-.3 2.2-.8 4.4-1.2 6.5-.9 4.3-2 8.3-3.4 12.2-2.6 7.7-5.9 14.6-9.3 20.7-3.4 6-7.1 11.1-10.5 15.4-3.4 4.3-6.6 7.8-9.4 10.5-1.4 1.4-2.6 2.5-3.7 3.5-.6.5-1.1 1-1.5 1.4-.5.4-.9.8-1.3 1.1-1.4 1.4-2.3 2-2.4 1.9zM822.3 117.7c-1 .2-3.3-14.5-11-30.8-7.5-16.4-17.1-27.7-16.3-28.3.3-.3 3.1 2.2 6.9 6.9.9 1.2 2 2.5 3 3.9 1.1 1.4 2.1 3 3.2 4.7 2.1 3.4 4.3 7.2 6.2 11.4 1.9 4.2 3.5 8.3 4.7 12.1.6 1.9 1.1 3.7 1.5 5.5.4 1.7.8 3.3 1.1 4.8 1.1 6 1.1 9.7.7 9.8zM697 228.3c-.2.3-4.4-2.4-9.6-8.3-2.6-3-5.4-6.7-8-11.2-2.6-4.5-5-9.7-7-15.4-3.9-11.3-5.5-22.1-6.1-29.8-.6-7.8-.4-12.6 0-12.6.5 0 1.1 4.7 2.3 12.3 1.2 7.6 3.1 18 6.9 29 3.8 11 9.1 20.2 13.7 26.2 4.6 6.2 8.2 9.4 7.8 9.8z"></path><ellipse cx="745.8" cy="351.8" stroke="#000" stroke-miterlimit="10" rx="58.9" ry="1.6" transform="rotate(87.78 745.806 351.844) scale(.99995)"></ellipse><path stroke="#000" stroke-miterlimit="10" d="M767.1 452.2c-.5 0-.8-3.1-2-7.8-1.2-4.7-3.6-11-8-16.9-2.1-2.9-4.6-5.3-7.3-6.3-1.3-.5-2.5-.6-3.3-.2-.8.4-1.4 1.4-1.6 2.4-.2 1-.1 1.9.2 2.8.2.9.6 1.6.9 2.2.6 1.2.9 2 .7 2.1-.2.1-.8-.3-1.8-1.4-.5-.6-1-1.3-1.5-2.3-.5-1-.9-2.3-.8-3.8.1-.7.2-1.5.6-2.3.4-.8 1-1.5 1.9-2.1.9-.5 1.9-.8 2.9-.8s1.9.2 2.8.5c1.8.6 3.5 1.6 4.9 2.9 1.5 1.3 2.8 2.8 4 4.4 4.7 6.4 6.9 13.4 7.6 18.4.7 5.1.2 8.3-.2 8.2z"></path><path stroke="#000" stroke-miterlimit="10" d="M749.3 469.3c-.3-.3 1-2 2.5-5s3.1-7.4 3.1-12.4-1.5-9.4-3-12.4-2.8-4.7-2.5-5.1c.3-.3 2.3.9 4.5 3.9 2.2 2.9 4.3 7.8 4.3 13.6s-2.2 10.7-4.4 13.6c-2.2 3-4.2 4.1-4.5 3.8zM746.8 469.4c.3.3 0 1.5-1.6 2.6-.8.6-1.8 1-3.1 1.3-1.3.2-2.7.2-4.2-.3-1.4-.5-2.6-1.4-3.4-2.4-.8-1-1.3-2-1.6-2.9-.5-1.9 0-3 .4-3 .5 0 .9.9 1.7 2.1.8 1.2 2.2 2.5 4 3.2 1.8.7 3.8.5 5.1.1 1.4-.5 2.3-1 2.7-.7z"></path><path stroke="#000" stroke-miterlimit="10" d="M749.5 466.3c-.3.4-1.5 0-3.3-.8-1.8-.7-4.1-1.8-6.7-2.1-1.3-.2-2.5-.1-3.6.1-.5.1-1 .3-1.5.5l-.6.3c-.2.1-.3.2-.5.3-.6.5-.9.9-1 1.3-.1.4 0 .7-.2.9-.2.1-.7.1-1-.6-.2-.3-.3-.9-.2-1.4.1-.5.3-1.1.6-1.6.2-.3.4-.5.6-.8.2-.3.6-.5.8-.7.6-.4 1.2-.7 1.9-1 1.4-.5 3.1-.7 4.8-.5 3.5.4 6 2.1 7.6 3.4 1.8 1.3 2.5 2.3 2.3 2.7z"></path><path stroke="#000" stroke-miterlimit="10" d="M753.1 458c-.3.4-2-.4-4.5-1.7-2.6-1.2-6.1-3-10-2.9-2 .1-3.7.6-5.1 1.5-1.4.9-2.2 2.1-2.5 3.1-.3 1 0 2 .3 2.7.3.6.6 1 .5 1.2-.1.2-.7.3-1.5-.3s-1.7-1.9-1.6-3.8c.1-1.9 1.2-3.9 3-5.2 1.8-1.4 4.2-2.2 6.7-2.3 2.5-.1 4.9.5 6.8 1.4 1.9.8 3.4 1.9 4.6 2.8 2.4 1.7 3.5 3.1 3.3 3.5z"></path><path stroke="#000" stroke-miterlimit="10" d="M755.5 452.6c-.3.3-1.9-.7-4.4-2.1-2.5-1.4-6.1-3.1-10.3-4-2.1-.5-4-.6-5.5-.2-.8.2-1.4.5-1.9.9s-.9.9-1.2 1.5c-.6 1.1-.7 2.1-.6 2.8.1.7.3 1.2.1 1.3-.1.1-.7 0-1.3-.8-.6-.8-.9-2.4-.4-4.1.3-.9.7-1.8 1.5-2.6s1.8-1.4 2.9-1.8c2.3-.8 4.8-.6 7.1-.1 4.7 1.1 8.5 3.3 10.9 5.3 2.4 1.9 3.4 3.6 3.1 3.9zM751.2 440.9c-.6.7-4.5-1.6-9.6-1.4-.6 0-1.3.1-1.8.2-.6.1-1.1.2-1.6.3-1 .3-1.8.7-2.5 1.1-1.3.8-1.6 1.9-2.1 1.9-.2 0-.4-.3-.5-1 0-.6.2-1.6.9-2.5.7-.9 1.7-1.8 3-2.3.6-.3 1.4-.5 2.1-.7.7-.2 1.5-.2 2.3-.3 3.2-.1 5.9.9 7.6 2.1 1.8 1.2 2.4 2.3 2.2 2.6zM818.9 598.5c-.5.1-2.5-7.9-7.4-20.1-2.4-6.1-5.6-13.3-9.4-21.2-3.8-7.9-8.1-16.5-12.6-25.6-4.4-9.1-8.4-18-11.6-26.2-3.2-8.3-5.5-15.9-6.9-22.4-1.4-6.5-2.1-11.9-2.3-15.7-.2-3.7-.1-5.8.1-5.8.6 0 1 8.2 4.5 20.9 1.7 6.4 4.2 13.8 7.5 21.9 3.3 8.1 7.3 16.8 11.7 25.9 4.4 9.1 8.7 17.8 12.3 25.8 3.7 8 6.7 15.4 8.8 21.7 2.2 6.3 3.6 11.5 4.4 15.2.9 3.5 1.1 5.5.9 5.6zM781.3 628.9c-.1 0-.1-.6.1-1.7.1-.5.2-1.2.4-2 .1-.8.2-1.7.4-2.7.5-4 .8-9.9-.2-17.1-.9-7.2-3.1-15.6-5.9-24.9-2.8-9.3-5.8-19.6-8.3-30.6-2.5-11-4.5-21.5-6.3-31-1.8-9.5-3.4-18.1-4.9-25.3-1.4-7.2-2.8-13-3.6-17-.9-4-1.3-6.2-1.1-6.3.2-.1 1 2.1 2.3 6 1.2 3.9 2.9 9.6 4.7 16.8 1.8 7.1 3.6 15.7 5.6 25.2 2 9.5 4 20 6.5 30.9 2.4 10.9 5.3 21.1 8 30.5 2.6 9.4 4.6 18 5.3 25.4.8 7.4.1 13.5-.8 17.6-.2 1-.5 1.9-.7 2.7-.3.8-.5 1.4-.7 1.9-.4 1.1-.6 1.6-.8 1.6zM745.9 744.1c-.4-.1.3-6.7 2.3-17.4 1-5.3 2.4-11.6 4.1-18.5 1.8-6.9 3.9-14.5 6.4-22.4 2.5-7.9 5.2-15.3 7.8-21.9 2.6-6.7 5.1-12.6 7.4-17.5 4.5-9.8 7.8-15.6 8.2-15.5.4.2-2.1 6.4-6.1 16.4-2 5-4.3 11-6.7 17.6-2.4 6.7-5 14.1-7.5 21.9-2.5 7.8-4.7 15.3-6.6 22.1-1.9 6.9-3.5 13-4.8 18.3-2.5 10.5-4 17-4.5 16.9zM834 768.4c-.4 0-1-4.1-1.2-10.8-.1-3.3 0-7.3.2-11.7.3-4.4.7-9.2 1.4-14.3.7-5 1.6-9.8 2.6-14.1 1-4.3 2.1-8.1 3.1-11.3 2-6.4 3.8-10.1 4.2-10 .9.3-3.9 16-6.6 35.9-2.9 19.8-2.7 36.2-3.7 36.3zM823.3 773.4c.1.3-4.4 2.5-12.2 3.6-3.9.6-8.7.9-14 .5-5.3-.4-11-1.5-16.8-3.5-5.8-2-10.9-4.8-15.3-7.8s-7.9-6.2-10.6-9.1c-5.4-5.8-7.6-10.3-7.3-10.5.4-.3 3.3 3.6 8.9 8.9 5.6 5.2 14.3 11.5 25.4 15.4 11 3.9 21.8 4.4 29.4 3.8 7.7-.5 12.4-1.8 12.5-1.3zM869.1 801.1c-.5.1-1.7-7.3-3.6-19.2-1.8-11.9-4.3-28.3-7-46.5-1.4-9.1-2.7-17.7-3.9-25.6-1.2-7.8-2.5-14.8-4.1-20.5-1.6-5.7-3.6-10.1-5.2-13-1.6-2.9-2.6-4.5-2.4-4.6.1-.1 1.5 1.2 3.5 4 1.9 2.8 4.3 7.2 6.3 13s3.5 12.9 4.9 20.7c1.4 7.8 2.8 16.5 4.2 25.6 2.8 18.2 4.9 34.7 6.1 46.7 1.2 11.9 1.7 19.3 1.2 19.4zM882.5 798c-.2 0-.3-2.7-.3-7.4 0-4.8 0-11.7-.1-20.2-.1-17.1-.8-40.6-2.8-66.6-2.2-25.9-4.7-49.4-8.4-66-3.6-16.6-8-26.3-7.5-26.5.2-.1 1.5 2.2 3.4 6.7 1.9 4.4 4.2 11 6.4 19.3 2.1 8.3 4 18.4 5.5 29.6 1.5 11.2 2.9 23.6 3.9 36.6 2 26.1 2.3 49.8 1.8 66.9-.2 8.6-.6 15.5-1 20.3-.3 4.7-.7 7.3-.9 7.3zM872.9 825.6c.2.1.2.7-.5 1.3-.7.6-2.1 1-3.6.6-.4-.1-.8-.3-1.2-.6-.2-.1-.4-.3-.6-.5l-.5-.5c-.6-.7-1.1-1.6-1.4-2.6-.3-.9-.4-1.9-.5-2.8-.1-.9-.2-1.9-.2-2.9-.1-4 .4-7.6 1.1-10.1.7-2.5 1.5-3.9 1.9-3.8.9.2 0 6.3.3 13.8.1 1.9.1 3.7.4 5.1.1.7.3 1.3.6 1.7.1.1.1.2.2.3.1.1.1.2.2.2.1.2.3.3.5.4.8.5 1.6.6 2.1.5.6.1 1-.2 1.2-.1zM887.4 839.8c-.1.4-2.1.4-4.9-1.2-2.8-1.5-6-4.8-7.9-9.2-1.9-4.4-2.5-8.6-2.7-11.6-.2-3 0-4.8.4-4.9.5-.1 1.1 1.7 1.8 4.5.8 2.8 1.7 6.7 3.4 10.6 1.7 3.9 4.2 6.9 6.3 8.6 2.1 1.9 3.8 2.7 3.6 3.2z"></path><path stroke="#000" stroke-miterlimit="10" d="M891 835.7c-.5-.1-.2-2.5-.2-6.2s-.6-8.8-2-14.3-3.3-10.3-4.6-13.9c-1.3-3.6-1.9-5.9-1.5-6.1.4-.2 1.8 1.8 3.6 5.1 1.8 3.4 4.1 8.2 5.6 14 1.5 5.8 1.7 11.3 1.2 15.2-.6 4.1-1.7 6.3-2.1 6.2zM885.9 842.2c-.9.1-2.1-5.3-4-11.7-1.9-6.4-3.7-11.6-2.9-12 .8-.4 4.1 4.3 6 11.1 2 6.7 1.8 12.5.9 12.6z"></path><path stroke="#000" stroke-miterlimit="10" d="M887 840.6c-.9-.2-.7-4.7-1.1-10.2-.4-5.5-1.3-9.9-.5-10.3.4-.1 1.2.8 2 2.6s1.5 4.4 1.7 7.4c.2 3-.1 5.7-.6 7.6-.5 1.9-1.1 3-1.5 2.9zM857.8 963.4c-.2.1-1.3-2.3-3-6.7-.4-1.1-.9-2.3-1.4-3.7-.5-1.4-1-2.8-1.5-4.4-1.1-3.2-2.3-6.8-3.5-10.9-.6-2-1.2-4.2-1.9-6.4-.6-2.2-1.2-4.6-1.8-7-1.3-4.8-2.4-10-3.6-15.5-2.2-11-4.3-23.1-5.8-36-1.5-12.8-2.4-25.1-3-36.3-.2-5.6-.5-10.9-.5-15.9 0-2.5-.1-4.9-.1-7.2v-6.6c0-4.2.1-8.1.2-11.4.1-3.4.2-6.3.3-8.6.3-4.7.5-7.3.7-7.3.2 0 .4 2.6.5 7.3.1 4.7.3 11.6.5 20 .1 2.1.1 4.3.2 6.6s.2 4.7.3 7.2c.2 5 .5 10.2.8 15.8.7 11.1 1.7 23.3 3.2 36.1 1.6 12.8 3.5 24.8 5.5 35.8 1.1 5.5 2.1 10.7 3.3 15.5.6 2.4 1.1 4.8 1.6 7 .6 2.2 1.1 4.4 1.6 6.4 1 4.1 2.1 7.7 3 11 .4 1.6.9 3.1 1.2 4.5.4 1.4.8 2.6 1.1 3.8 1.7 4.3 2.3 6.8 2.1 6.9zM781.2 814.8c-.6.6-5.2-2.9-9.4-8.7-4.2-5.8-6.1-11.3-5.4-11.6.8-.4 4 4.2 8 9.7 4 5.5 7.4 10 6.8 10.6zM843.2 987.8c-.2.1-1.7-2-4.1-6.1-1.3-2-2.7-4.5-4.3-7.4-.8-1.5-1.7-3-2.6-4.7-.9-1.7-1.8-3.5-2.8-5.3-7.8-15-17-36.5-25.3-60.9-4.2-12.2-7.7-23.9-10.8-34.7-3.1-10.7-5.6-20.4-7.7-28.6-1-4.1-1.9-7.8-2.7-11-.8-3.2-1.6-6-2.3-8.2-1.4-4.5-2.4-6.8-2.2-7 .2-.1 1.6 2.1 3.4 6.5.9 2.2 1.8 4.9 2.8 8.2 1 3.2 2 6.9 3.2 10.9 2.3 8.1 5.1 17.7 8.3 28.4 3.2 10.6 6.8 22.3 11 34.4 8.3 24.3 17.1 45.8 24.3 60.9.9 1.9 1.7 3.7 2.6 5.4.8 1.7 1.6 3.3 2.4 4.8 1.5 3 2.7 5.6 3.8 7.7 2.1 4.2 3.2 6.6 3 6.7z"></path><path stroke="#000" stroke-miterlimit="10" d="M852.8 961c-.3.4-1.6-.3-3.6-.9-2-.6-4.9-1.1-8-.5-3 .6-5.5 2.1-7.2 3.5-.4.3-.8.6-1.1.9-.2.1-.3.3-.5.4-.2.1-.3.2-.3.2h-.4l-.2.1v-.1c0 .1.1.2.1.1h.1s.1-.1.2.1c.1.1 0 .3-.2.4-.1.1-.4.3-.8-.1l-.1-.1v-.1l-.1-.1c-.1-.1-.1-.2-.1-.3v-.5c.1-.3.2-.5.2-.7l.3-.6c.2-.4.5-.9.9-1.4 1.5-2 4.4-4.3 8.2-5.1 3.9-.8 7.4.3 9.5 1.6 2.5 1.6 3.3 2.9 3.1 3.2zM846.5 945.1c-.1.5-1.5.6-3.8.7-2.2.1-5.3.1-8.3.8-3 .8-5.5 2.3-7 3.7-1.5 1.4-2.2 2.6-2.7 2.5-.4-.1-.5-1.8.9-3.9 1.3-2.2 4.2-4.5 8-5.4 3.7-.9 7.1-.5 9.4 0 2.2.5 3.5 1.1 3.5 1.6zM823.5 797.3c.1.2-.1.6-.7 1.4-.7.7-1.8 1.6-3.4 2.3-1.6.7-3.6 1.2-5.9 1.3-2.3.1-4.9-.4-7.3-1.6-2.5-1.2-4.4-3.1-5.7-4.9-1.3-1.9-2.1-3.7-2.7-5.3-.5-1.5-.8-2.9-.9-3.7v-.2l.1-.2V786.1h.2l-.1.1c-.1 0-.1.1-.1.1s-.1-.1 0 0h.1s.1.1-.1.2c-.2 0-.4-.1-.4-.3 0-.1-.1-.3.1-.5.1-.1.2-.2.4-.2H797.4c.4.1.7.4.8.6.5.9 1.1 1.9 1.9 3.3 1.5 2.7 3.8 6.4 7.7 8.3 2 .9 4 1.4 6 1.5 1.9.1 3.7-.1 5.1-.5 2.7-.6 4.3-1.8 4.6-1.4zM825.5 784.6c.2.4-1 1.6-3.4 2.6s-6.4 1.8-10.5.6c-4.2-1.3-7-4.3-8.2-6.8-1.2-2.5-.9-4.3-.5-4.4.5-.1 1 1.4 2.5 3.2 1.4 1.8 3.9 3.9 7.2 4.9 3.3 1 6.6.7 8.9.3 2.3-.4 3.8-.8 4-.4zM819.4 815.3c-.4.2-1.1-.1-1.7-.9-.7-.8-1.4-2.1-1.7-3.6-.4-1.5-.3-3 0-4s.7-1.6 1.2-1.6c.9.1 1.4 2.3 2 4.9.5 2.5 1 4.7.2 5.2z"></path><ellipse cx="821.9" cy="832.4" stroke="#000" stroke-miterlimit="10" rx="4.3" ry="1.6" transform="rotate(81.616 821.878 832.454)"></ellipse><ellipse cx="826" cy="857.6" stroke="#000" stroke-miterlimit="10" rx="5.4" ry="1.6" transform="rotate(83.483 826.043 857.621)"></ellipse><path stroke="#000" stroke-miterlimit="10" d="M830.1 889.1c-.9 0-1.7-2.4-2.1-5.3-.4-3-.3-5.5.6-5.7.9-.2 2.2 2.1 2.6 5.3.4 3.1-.2 5.7-1.1 5.7z"></path><ellipse cx="834.6" cy="904.5" stroke="#000" stroke-miterlimit="10" rx="4.3" ry="1.6" transform="rotate(80.213 834.553 904.452)"></ellipse><ellipse cx="839.1" cy="929.8" stroke="#000" stroke-miterlimit="10" rx="3.8" ry="1.6" transform="rotate(80.096 839.135 929.795)"></ellipse><path stroke="#000" stroke-miterlimit="10" d="M862.8 986.9c-.8.4-4-4.6-6-11.5-2.1-6.9-2.1-12.8-1.3-12.9.9-.1 2.4 5.4 4.4 12 2 6.7 3.7 12.1 2.9 12.4zM848.5 998.2c-.2.2-.9-.2-1.9-.8-.3-.2-.5-.3-.8-.5-.1 0-.2-.1-.2-.1l-.1-.1c-.1 0-.2-.1-.3-.1-.2 0-.4-.1-.5-.1H844.4s-.1 0-.1.1c.1.4.1.9.2 1.4.1 1.2.2 2.4.5 3.7.6 3.8 1.8 7.1 2.7 9.5.9 2.4 1.6 3.9 1.2 4.2-.3.3-1.7-.8-3.2-3.1-1.5-2.3-3.2-5.8-3.8-10-.2-1.4-.4-2.8-.4-4.1v-1.4c0-.5.1-1 .1-1.5 0-1 .1-1.9.2-2.7h.2l.3.1c.2.1.4.1.6.2.4.1.7.3 1.1.4.7.3 1.3.6 1.9 1 .3.2.5.4.8.6l.3.3.2.2c.3.3.5.6.7.8.6 1 .8 1.8.6 2z"></path><path stroke="#000" stroke-miterlimit="10" d="M862.5 993.5c-.4.3-1.5-.6-3.3-1.7-.9-.6-2-1.3-3.2-1.9-1.2-.6-2.7-1.3-3.9-1.4-.6 0-.9.1-1.3.3-.3.2-.6.7-.9 1.2-.5 1-.5 2.2-.6 3.4-.1 1.1-.2 2.1-.4 2.8-.2.7-.5 1-.8.9-.2 0-.4-.4-.5-1-.2-.6-.4-1.4-.6-2.6-.1-.6-.2-1.2-.3-2 0-.8 0-1.6.3-2.5.3-.9.7-1.9 1.7-2.7.9-.8 2.3-1.2 3.5-1.1 1.2.1 2.1.4 3 .8.8.4 1.5.8 2.2 1.2 1.4.9 2.4 1.8 3.2 2.7 1.7 1.9 2.2 3.4 1.9 3.6z"></path><path stroke="#000" stroke-miterlimit="10" d="M877.8 1016.3c-.9.3-3.9-8.1-8.7-17.9-1.2-2.4-2.4-4.8-3.5-6.9-.3-.5-.5-1-.8-1.5-.1-.2-.3-.5-.4-.7l-.1-.2v-.1l-.1-.1-.3-.6c-.1-.2-.4-.3-.6-.2-.4.2-.5.5-.8.8-.1.1-.3.5-.4.7-.1.3-.2.5-.3.7-.4.9-.6 1.4-.9 1.4-.2 0-.4-.6-.4-1.7 0-.3 0-.6.1-.9 0-.3.1-.7.3-1.2.3-1 .7-2.2 1.8-2.8.5-.3 1.3-.2 1.8.1.6.3 1.1.8 1.6 1.5.4.6.7 1.1 1.1 1.7l.9 1.5c1.3 2.1 2.6 4.4 3.8 6.9 5.1 10.3 6.8 19.3 5.9 19.5zM696.6 957.5c-.2 0-.5-2.9-.7-8.2-.2-5.3-.2-13 .4-22.5.6-9.5 1.9-20.7 4-33.1 2.2-12.4 5.2-25.9 9.2-39.8 7.9-27.9 17.4-52.4 24.4-69.9 3.5-8.8 6.5-15.9 8.6-20.7 2.1-4.9 3.4-7.5 3.6-7.4.2.1-.7 2.9-2.4 7.9-1.8 5-4.4 12.2-7.7 21.1-6.5 17.8-15.6 42.3-23.4 70-3.9 13.9-7 27.2-9.3 39.5-2.3 12.3-3.8 23.4-4.7 32.8-.9 9.4-1.3 17-1.4 22.3-.3 5.1-.4 8-.6 8zM715.4 975.7c-.2 0-.1-2.4.3-6.8.1-1.1.2-2.3.4-3.6.2-1.3.4-2.7.6-4.3.5-3.1.9-6.6 1.7-10.4.4-1.9.7-3.9 1.1-6 .4-2.1.9-4.2 1.4-6.5.9-4.5 2.2-9.2 3.5-14.2 2.8-9.9 6.2-20.8 10.5-31.9 4.4-11.1 9.1-21.4 13.8-30.6 2.4-4.6 4.7-8.9 7-12.8 1.2-2 2.2-3.9 3.4-5.7 1.1-1.8 2.2-3.5 3.3-5.2 2-3.3 4.1-6.2 5.8-8.8.9-1.3 1.7-2.5 2.5-3.5.8-1.1 1.5-2 2.2-2.9 2.6-3.5 4.2-5.3 4.4-5.2.2.1-1 2.2-3.3 5.9-.6.9-1.2 1.9-1.9 3s-1.4 2.4-2.2 3.7c-1.6 2.6-3.5 5.6-5.4 9-1 1.7-2 3.4-3 5.3-1.1 1.8-2.1 3.8-3.2 5.8-2.2 4-4.4 8.3-6.7 12.9-4.5 9.2-9.1 19.4-13.5 30.4-4.3 11-7.8 21.7-10.7 31.5-1.4 4.9-2.7 9.6-3.8 14-.5 2.2-1.1 4.3-1.6 6.4-.5 2.1-.9 4-1.3 5.9-.9 3.8-1.5 7.2-2.1 10.2-.3 1.5-.6 2.9-.8 4.2-.2 1.3-.4 2.5-.6 3.6-1 4.3-1.6 6.6-1.8 6.6zM705.3 989.3c-.4.2-1.6-1-3.1-3.1-.8-1.1-1.7-2.3-2.7-3.6-1-1.2-2.2-2.4-3.7-3-1.5-.7-3-.8-4.1-.3-1.1.4-2 1.5-2.7 2.5-.7 1-1.4 2-1.9 2.5-.6.6-1 .7-1.2.6-.2-.1-.1-.6.1-1.3.2-.7.5-1.7 1-3 .3-.6.6-1.4 1.1-2.1.5-.7 1.3-1.5 2.3-2 2-1.1 4.6-1 6.8 0s3.7 2.7 4.8 4.2c1 1.5 1.7 3 2.3 4.2.9 2.6 1.4 4.2 1 4.4z"></path><path stroke="#000" stroke-miterlimit="10" d="M720.7 993.4c-.1.2-.7.1-1.4-.5s-1.5-1.8-2-3.4c-.5-1.6-.7-3.5-.9-5.3-.1-.9-.3-1.8-.6-2.7-.1-.2-.2-.4-.2-.6-.1-.2-.2-.3-.3-.5-.2-.3-.5-.7-.8-.9-.6-.6-1.3-.9-1.9-.9-.3 0-.5 0-.8.2-.3.1-.6.3-.9.6-1.3 1.1-2.4 2.4-3.2 3.6-1.6 2.3-2.2 4.1-2.7 4-.4-.1-.6-2.1.6-5.1.6-1.5 1.6-3.1 3.2-4.7.4-.4.9-.8 1.5-1.2.6-.3 1.4-.6 2.2-.6 1.6 0 3 .7 4.1 1.7.5.5 1 1 1.4 1.6.2.3.3.6.5.9l.3.9c.4 1.2.5 2.4.5 3.4.1 2.1 0 3.7.2 5.1.1 1.4.5 2.4.8 3.1.3.7.6 1.2.4 1.3zM670.9 1057.8c-.2.1-.8-.9-1.4-2.8-.7-1.9-1.3-4.7-1.6-8.3-.3-3.6-.1-7.8.7-12.5.8-4.6 2.1-9.6 3.9-14.7 1.8-5.1 3.8-9.7 5.5-14 1.8-4.2 3.3-8.1 4.5-11.3 2.4-6.5 3.4-10.6 3.9-10.6.4.1.2 4.5-1.7 11.3-.9 3.4-2.3 7.4-3.9 11.7-1.6 4.3-3.5 9-5.2 14-1.7 4.9-3.1 9.7-4 14.1-.9 4.4-1.3 8.5-1.3 11.9-.2 6.9 1.1 11.1.6 11.2zM718.8 999.1c.2.1-.1 1.1-1 2.8-.9 1.7-2.3 4-4.2 6.7-3.8 5.5-9.1 13-15.2 21.1-6.1 8.1-11.8 15.4-16 20.5-1.1 1.3-2.2 2.5-3.3 3.3-1.1.9-2.3 1.4-3.3 1.6-1 .2-1.9.1-2.4-.1s-.7-.4-.7-.5c.1-.3 1.1.1 2.7-.6 1.5-.6 3.4-2.4 5.1-5.2 3.8-5.5 9.1-13 15.2-21.1 6.1-8.1 11.8-15.4 16-20.5 2.1-2.5 3.8-4.6 5-6 1.2-1.3 1.9-2.1 2.1-2zM717.8 949.3c-.4.3-1.4-.5-3-1.6-.8-.5-1.7-1.1-2.8-1.7-1.1-.6-2.3-1.1-3.6-1.6-1.3-.5-2.6-.8-3.9-1-1.2-.2-2.3-.4-3.3-.4-1.9-.2-3.2-.2-3.3-.6-.1-.4 1-1.2 3.1-1.7 1.1-.2 2.4-.3 3.8-.3 1.4.1 3 .4 4.6.9 1.6.6 3 1.3 4.2 2.1 1.2.8 2.1 1.7 2.8 2.6 1.4 1.7 1.7 3 1.4 3.3z"></path><ellipse cx="695.1" cy="969.8" stroke="#000" stroke-miterlimit="10" rx="8.3" ry="1.6" transform="rotate(-83.062 695.118 969.79)"></ellipse><path stroke="#000" stroke-miterlimit="10" d="M719.2 935.4c-.7.6-3.9-2.4-8.7-3.8-1.2-.4-2.4-.6-3.4-.8-1.1-.2-2.1-.3-2.9-.4-.4-.1-.9-.1-1.2-.1h-.1v-.2.1h-.5c-.2-.1-.3 0-.3 0V930.5c-.1.1-.1.3-.4.1-.1-.1-.2-.4-.2-.6 0-.2.1-.4.2-.5.1-.2.2-.3.4-.5.1-.1.2-.2.4-.2.2-.1.3-.1.4-.1.4-.1.7-.3 1.2-.4 1-.2 2.1-.4 3.4-.3 1.3.1 2.7.3 4.1.7 2.9.9 5.1 2.6 6.4 4 1.1 1.3 1.5 2.5 1.2 2.7zM873.4 1012.8c.2-.1.7.8 1.4 2.4.7 1.7 1.6 4.1 2.3 7.3.3 1.6.5 3.4.5 5.4 0 1-.1 2-.3 3.1-.2 1-.5 2.2-1.1 3.3-.6 1.2-1.8 2.2-3.2 2.7-1.3.5-2.8.6-4.1.4-2.8-.5-4.9-2.1-6.9-3.6-7.9-6.1-13.2-13.7-15.9-19.5-2.8-5.9-3.4-9.9-3-10 .5-.2 1.9 3.5 5.1 8.9 3.2 5.3 8.4 12.3 15.9 18 1.9 1.5 3.7 2.7 5.4 3 .9.2 1.8.1 2.5-.1.7-.3 1.3-.7 1.7-1.3.4-.7.7-1.5.9-2.4.2-.9.3-1.8.4-2.6.2-1.7.1-3.4-.1-4.9-.3-3.1-.9-5.5-1.2-7.3-.4-1.7-.5-2.7-.3-2.8z"></path><path stroke="#000" stroke-miterlimit="10" d="M862.9 1011.8c-.2.2-.6 0-1.1 0-.3 0-.6 0-1 .1-.2 0-.4.1-.7.1-.1 0-.3 0-.4.1-.2 0-.2 0-.5.1-.9.1-2.1.1-3-.3-.5-.2-.9-.5-1.1-1-.2-.5-.2-1 0-1.6.1-.6.5-1.2.9-1.9.2-.4.4-.8.6-1.3.3-.5.6-1.1.8-1.7.1-.2.3-.4.3-.6-.2 0-.4-.1-.6-.1h-.8c-.2 0-.3 0-.5.1-.7.1-1.3.3-1.8.4-2.2.6-3.6 1.3-3.9.9-.3-.3.7-1.7 3-3 .6-.3 1.3-.6 2-.9.2-.1.4-.1.6-.2l.3-.1.5-.1c.6-.1 1.3-.2 2-.3 1.4-.1 2.6 0 4.1 0h.1v.1l-.1.2-.2.5c-.1.3-.3.6-.4 1-.1.3-.3.6-.4 1-.2.4-.4.7-.6 1.1-.4.7-.7 1.3-1.1 2-.2.4-.4.8-.7 1.2l-.3.6-.2.3-.1.1c-.1.1-.2.2-.2.3-.1.1-.2.2-.2.4 0 .1.1.2.2.3.2.1.5.2.7.2h.8c.3 0 .6.1.9.1.6.1 1.1.3 1.4.6.8.6.8 1.2.7 1.3zM691 1004.5c.4.4-1.5 2.2-1.6 2.6.2.2.5.3.8.5 0-.1.4.3.6.6l.9.9c.6.6 1 1.2 1.6 1.8l.3.3.1.2.1.1s-.1 0-.1.1l-.7.4c-.5.3-.9.5-1.4.8-.9.5-1.9.9-2.8 1.1-1.3.3-2.4.4-3.4.3-1.9-.1-3-.8-2.9-1.2.1-.5 1.2-.7 2.7-1.1.8-.2 1.7-.5 2.6-.9.2-.1.3-.2.4-.3l.2-.1.1-.1s0-.1-.1-.1c-.1-.1-.1-.2-.2-.2l-.1-.1c-.1-.1 0 0-.3-.4-1-1.1-2-2.2-2.7-3 4.5-2.5 5.5-2.6 5.9-2.2zM754.4 763.9c.4.2 0 1.5-.9 3.4s-2.4 4.5-4.9 6.8c-2.4 2.4-5.3 3.8-7.5 4.2-2.2.4-3.6 0-3.6-.4 0-.5 1.2-.9 2.9-1.8s3.9-2.3 6-4.4c2.1-2 3.8-4.2 5.2-5.7 1.4-1.4 2.4-2.3 2.8-2.1zM845.5 590.1c0 .1-.3.1-.8 0-.2 0-.5-.1-.9-.2-.3-.1-.7-.3-1.2-.4-1.7-.7-4.1-2.2-6.3-4.8-2.2-2.5-4.3-6.1-5.7-10.3-1.5-4.2-2.2-9-2.5-14-.2-5 .1-9.9.8-14.2.7-4.3 1.6-8.1 2.6-11.2 2-6.2 3.8-9.8 4.2-9.7.5.2-.6 4-2 10.3-1.3 6.2-2.8 15-2.4 24.6.3 4.8.9 9.4 2.1 13.3 1.2 3.9 2.9 7.3 4.7 9.8 1.8 2.5 3.8 4.1 5.2 5.1.4.3.7.5 1 .7.3.2.5.3.7.5.3.1.5.3.5.5zM880.1 574c.4.2-.1 1.9-1.7 4.2-.8 1.1-1.9 2.4-3.3 3.6-1.4 1.2-3 2.4-4.9 3.4-1.9 1-3.8 1.7-5.6 2.2-1.8.4-3.4.7-4.8.7-2.8.1-4.5-.5-4.4-.9 0-.5 1.6-.8 4.1-1.4 1.2-.3 2.7-.7 4.3-1.3 1.6-.6 3.2-1.3 4.9-2.2 1.7-.9 3.2-1.9 4.5-2.9 1.3-1 2.5-2 3.4-2.8 2-1.6 3.1-2.8 3.5-2.6zM888.1 556.8c-.2 0-.3-.8.6-1.7.4-.4 1.1-.8 1.9-.9.9-.2 1.9 0 2.8.4 1 .4 1.9 1.1 2.6 1.9.8.8 1.6 1.9 2 3.3.4 1.4.4 2.8.2 4.2-.2 1.4-.7 2.7-1.3 4-1.2 2.6-2.9 4.9-5.1 6.3-.5.4-1.1.7-1.7.9-.6.2-1.2.4-1.8.5-1.2.2-2.3.2-3.3 0-2-.4-3.3-1.5-3.9-2.4-.6-.9-.7-1.5-.5-1.6.2-.1.6.3 1.4.7.7.5 1.9.9 3.4 1 .7 0 1.5-.1 2.3-.3.8-.2 1.6-.7 2.4-1.3 1.5-1.2 2.9-3 3.9-5.3 1-2.2 1.6-4.4 1.2-6.1-.2-.8-.6-1.6-1.1-2.3-.5-.7-1.1-1.3-1.7-1.7-.6-.4-1.1-.6-1.6-.6s-1 .1-1.4.2c-.7.5-1.1.9-1.3.8z"></path><path stroke="#000" stroke-miterlimit="10" d="M882.5 566.6c-.4-.1-.7-.8-.5-1.7.1-1 .7-2.2 1.7-3.2s2.3-1.6 3.2-1.7c1-.1 1.6.1 1.7.6.1.4-.2 1-.7 1.5-.5.6-1.2 1.2-1.9 1.9s-1.4 1.4-2 1.9c-.5.4-1 .8-1.5.7z"></path><path stroke="#000" stroke-miterlimit="10" d="M888.5 568.8c-.4-.2-.6-.7-.9-1.1-.3-.4-.5-.8-.9-1.2-.4-.5-.7-.8-1-1.2-.3-.4-.7-.7-.9-1.1-.1-.4.2-1 1.2-1.2.5-.1 1.1 0 1.6.2.6.3 1.1.7 1.5 1.2.4.6.7 1.2.8 1.8.1.6 0 1.2-.2 1.7-.1 1-.8 1.1-1.2.9zM857.2 613.1c-.4 0-1-2.1-.6-5.6.3-3.5 1.7-8.2 4.2-12.8 2.6-4.6 5.7-8.2 8-10.7 2.4-2.4 4-3.7 4.4-3.5.3.3-.7 2.1-2.6 4.9-1.9 2.8-4.5 6.5-6.9 10.8-2.4 4.3-4 8.5-4.8 11.7-1 3.2-1.3 5.2-1.7 5.2zM828.6 594.7c-.4.8-3.5.2-6.6-1.9-3.1-2.1-4.9-4.8-4.3-5.4.6-.7 3.2.8 6.1 2.7 2.9 1.9 5.2 3.7 4.8 4.6z"></path><path stroke="#000" stroke-miterlimit="10" d="M856.6 610.3c.1 0 .2.2.2.5.1.4 0 .9-.1 1.5-.2 1.3-1.1 3.2-2.8 4.9-1.8 1.7-4.5 3.2-7.8 3.4-3.3.3-6.9-.9-9.9-3.1s-5.1-5.1-6.5-7.9c-1.4-2.8-2.1-5.5-2.5-7.7-.8-4.5-.7-7.3-.3-7.3.5-.1 1.2 2.6 2.5 6.7.7 2.1 1.6 4.5 2.9 6.9 1.3 2.4 3.2 4.8 5.7 6.6 2.5 1.8 5.3 2.8 7.9 2.8 2.5-.1 4.8-1 6.4-2.2 1.6-1.2 2.6-2.5 3.1-3.6.7-.9.9-1.6 1.2-1.5z"></path><path stroke="#000" stroke-miterlimit="10" d="M828.6 599.5c-.1-.5.8-1.1 1.9-2 .6-.5 1.3-1.1 2-1.7.7-.7 1.4-1.5 2-2.4.6-.9 1.2-1.8 1.6-2.7.4-.9.8-1.7 1-2.4.5-1.4.8-2.4 1.3-2.5.4 0 1 1 1 2.8 0 .9-.1 2-.5 3.2-.4 1.1-1 2.4-1.8 3.5s-1.8 2.1-2.8 2.8c-1 .7-2 1.2-2.8 1.5-1.6.6-2.8.4-2.9-.1zM860.9 560.4c.4.2.1 2.1-1.9 4.3-1 1.1-2.3 2.3-4.1 3.2-1.8.9-4 1.5-6.3 1.5-2.4-.1-4.5-.7-6.3-1.7-1.8-1-3.1-2.2-4-3.3-1.9-2.4-2.1-4.3-1.7-4.4.4-.2 1.4 1.2 3.4 2.8 1.9 1.6 5.1 3.3 8.7 3.4 3.7 0 6.9-1.6 8.8-3.1 2-1.5 3-2.9 3.4-2.7zM849 551.5c-.4-.2-.5-1-1-2-.4-1-1.4-2.2-2.6-2.5-1.2-.3-2.7.2-3.5.9-.9.6-1.4 1.3-1.8 1.3-.2 0-.4-.3-.5-.8-.1-.5.1-1.2.5-2s1.2-1.5 2.2-2.1c1-.6 2.5-.8 3.9-.5 1.5.4 2.5 1.3 3.2 2.3.7 1 .9 2 .9 2.9 0 .9-.2 1.6-.5 1.9-.3.5-.6.6-.8.6zM845.5 529.5c.7.6 0 2.4-1.2 4.3-1.2 1.8-2.6 3.2-3.4 2.8-.8-.4-.7-2.5.7-4.6 1.3-2.2 3.2-3.2 3.9-2.5z"></path><ellipse cx="861.7" cy="539.1" stroke="#000" stroke-miterlimit="10" rx="3.7" ry="1.6" transform="rotate(-55.342 861.62 539.05)"></ellipse><path stroke="#000" stroke-miterlimit="10" d="M843.5 519.5c.2.4-1.5 1.7-4.5 3.6-.8.5-1.6 1-2.5 1.5-.9.5-1.9 1.1-3.2 1.5-.6.2-1.4.4-2.2.4-.8 0-1.8-.2-2.6-.7-.8-.5-1.4-1.3-1.8-2.1-.4-.8-.6-1.7-.6-2.6 0-1.8.7-3.3 1.4-4.5.7-1.2 1.5-2.1 2.3-3.1 1.6-1.8 3.3-3.3 5-4.2 1.6-.9 3.1-1.3 4.1-1.5 1-.1 1.6 0 1.7.2.1.5-2 1.1-4.5 3.1-1.3 1-2.6 2.4-3.9 4.1-1.3 1.7-2.8 3.9-2.8 5.6 0 .9.4 1.7.9 2 .5.3 1.3.4 2.2.2.9-.2 1.9-.6 2.8-1.1.9-.4 1.8-.8 2.6-1.1 3.3-1.1 5.4-1.7 5.6-1.3z"></path><path stroke="#000" stroke-miterlimit="10" d="M867.1 527.2c.2.2-.1.7-.6 1.5-.6.8-1.5 2-3 3.2-.8.6-1.7 1.1-2.9 1.5-1.2.4-2.6.4-4 .1-1.4-.3-2.9-1.1-3.9-2.6-.5-.7-.8-1.6-.9-2.5v-1.3c0-.2.1-.4.2-.5v-.1h-.1l-.2.1c-.1 0-.3.1-.4.1l-.3.1c-.3.1-.6.1-.9.2-.6.1-1.2.1-1.9.1-2.4-.1-4.7-1.4-5.5-3.3-.8-1.8-.3-3.5.3-4.3.7-.8 1.3-.9 1.4-.7.1.2-.2.6-.3 1.3-.2.7-.1 1.8.5 2.7.6.9 2 1.5 3.7 1.4.4 0 .8-.1 1.3-.2.2-.1.4-.1.7-.2l.3-.1.3-.1c.2-.1.5-.2.7-.3.9-.4 1.9-.9 3-1.4.5-.2 1-.5 1.5-.7l.8-.4.4-.2.3-.1c-.6 1.5-1.2 3.1-1.9 4.7-.2.7-.5 1.3-.5 1.9-.1.4 0 .4-.1.6v.3c0 .4.2.8.4 1.1.4.6 1.2 1.2 2 1.4.9.3 1.8.3 2.5.2.8-.1 1.6-.5 2.3-.8 1.4-.7 2.5-1.6 3.4-2.2.7-.5 1.2-.7 1.4-.5z"></path><path stroke="#000" stroke-miterlimit="10" d="M890.4 552.2c.1.1-.3.8-1.5 1.1-.6.1-1.4.2-2.2-.1-.9-.2-1.8-.8-2.6-1.6s-1.4-1.9-1.9-3-.8-2.4-1.1-3.8c-.5-2.7-.5-5.9.4-9.1l3.1.9c-.6 2.1-1.6 4.2-3.1 6.1-1.4 1.7-3.4 3-5.7 3.3-2.3.3-4.5-.5-6-1.7-3.1-2.5-4.2-5.8-4.5-8.5-.3-2.7.1-4.8.6-6.2.5-1.4 1-2.1 1.2-2 .2.1.1.9.1 2.2-.1 1.4-.1 3.3.5 5.6.3 1.2.7 2.3 1.3 3.4.7 1.1 1.6 2.2 2.7 3 1.1.8 2.4 1.2 3.8 1 1.3-.2 2.6-1 3.7-2.3 1.2-1.4 2-3.1 2.6-4.8l3.1.9c-.8 2.7-1 5.4-.7 7.8.3 2.4.9 4.6 1.8 5.9.9 1.3 2.2 1.8 3.1 1.9.6.1 1.2-.1 1.3 0zM876.8 497.1c-.2.1-.6-.5-1.4-1.4-.7-.9-1.9-2.2-3.6-3.3-1.7-1.1-4-2-6.6-2.1-1.3 0-2.8.1-3.5.7-.4.3-.6.5-.7.9-.1.4 0 1 .2 1.5.1.1.1.3.2.4 0 0 0 .1.1.1l.1.1c.1.2.2.3.4.4.5.6 1.2 1.1 2.1 1.6 1.7 1.1 3.5 2.2 5.1 3.3l-.7.1h-11.4c-2.3.1-4.3.4-5.9.8-1.6.4-2.8.9-3.8 1.3-.2 0-.4.3-.4.4l-.1.1c0 .1.1.1.1.1s0 .1-.1.2c-.1 0-.2.1-.3 0-.1-.1-.2-.2-.2-.3-.1-.2-.1-.4-.1-.7 0-.2.2-.6.5-.8.7-.6 2-1.6 3.7-2.3 1.7-.7 3.9-1.3 6.3-1.6.5-.1 1.1-.1 1.6-.2.2 0 .4-.1.6-.1.2 0 .3 0 .5-.1h.2s-.1-.1-.2-.1c-.2-.1-.4-.2-.5-.4l-.2-.2v-.1l-.1-.1c0-.1-.1-.1-.1-.2-.1-.2-.3-.5-.4-.7-.4-1-.6-2.2-.3-3.4.1-.6.4-1.2.8-1.7s.8-.9 1.3-1.2c1-.6 1.9-.8 2.8-.9.9-.1 1.7-.1 2.6-.1 3.3.3 6 1.7 7.8 3.2 1.8 1.6 2.9 3.3 3.3 4.5.5 1.5.5 2.2.3 2.3zM894.9 506.8c0-.2.4-.3.8-.8.2-.2.4-.6.5-1 .1-.4.1-.9 0-1.4-.3-1-1.3-2-2.9-2.7-.4-.2-.8-.4-1.3-.5-.3-.1-1.3-.5-2.2-.6-1-.2-2.2-.2-3.6-.4-1.3-.1-2.7-.2-4.1-.3 1.6-.9 3.8-2.1 5.8-3.2.5-.3 1-.6 1.4-.9.2-.2.4-.3.6-.5l.2-.2.1-.1c.1-.2.3-.3.4-.5.1-.2.2-.3.3-.5.2-.5.3-1 .2-1.5-.1-.5-.2-.8-.4-1-.4-.5-1.8-.6-3.1-.8-2.7-.3-4.9-.3-6.5.3-1.7.6-2.7 1.8-3.1 2.6-.2.5-.4.8-.4 1.1 0 .3 0 .4-.1.4s-.4 0-.6-.3c-.2-.3-.3-.9-.2-1.6.2-1.3 1.3-3.2 3.4-4.3 2.1-1.2 5-1.4 7.8-1.2.7 0 1.4.1 2.2.2.8.1 1.9.4 2.8 1.2.9.8 1.4 1.9 1.5 3 .1 1.1 0 2.1-.4 3.1-.1.4-.3.7-.6 1-.2.3-.4.6-.7.9l-.2.2-.1.1-.1.1c-.1 0-.1.1-.2.1-.1.1-.2.2-.4.2l-.2.1-.1.1s-.1 0 0 0c.3 0 .5.1.8.2.3.1.5.2.8.4.5.2 1 .5 1.5.8.9.6 1.8 1.2 2.4 2 .7.8 1.1 1.7 1.2 2.7.1 1.9-1 3.1-1.8 3.6-.9.3-1.5 0-1.4-.1zM898.8 559.6c-.4-.3 1.2-3.2 3.4-8 2.1-4.8 4.7-11.7 5-19.6.2-3.9-.2-7.7-1.1-11-.8-3.3-2.1-6.1-3.4-8.3-2.6-4.5-5.7-5.8-5.5-6.3.1-.2 1-.2 2.4.5s3.3 2.1 5 4.4c1.7 2.3 3.3 5.3 4.3 8.8 1.1 3.6 1.6 7.7 1.4 11.9-.2 4.3-1.1 8.3-2.3 11.7-1.2 3.5-2.6 6.4-4 8.8-2.6 4.9-4.9 7.3-5.2 7.1zM868.1 587.7c.1-.5 1.4-.6 3.5-1 1-.2 2.2-.5 3.5-1 1.3-.5 2.6-1 4-1.8 1.3-.8 2.5-1.6 3.6-2.5 1-.9 1.9-1.7 2.6-2.5 1.4-1.5 2.2-2.6 2.7-2.4.4.2.3 1.7-.8 3.8-.5 1.1-1.4 2.2-2.4 3.4-1.1 1.1-2.5 2.2-4 3.1-1.6.9-3.2 1.5-4.8 1.8-1.5.3-3 .4-4.1.4-2.6-.2-3.9-.9-3.8-1.3zM784.7 523.7c-.1.5-1.3.5-3 .7-.9.1-1.9.3-2.9.5-1.1.3-2.2.6-3.4 1.1-1.2.5-2.2 1.1-3.2 1.7-.9.6-1.8 1.2-2.4 1.7-1.3 1.1-2.2 1.9-2.6 1.6-.4-.2-.2-1.5.9-3.2.5-.8 1.3-1.8 2.3-2.6 1-.8 2.3-1.6 3.7-2.3 1.4-.6 2.9-.9 4.2-1.1 1.3-.1 2.5-.1 3.5.1 2 .7 3 1.4 2.9 1.8zM788.1 537.5c-.4.8-4.2-.1-8.7.7-2.3.4-4.1 1.1-5.3 1.8-1.2.7-1.7 1.6-2.2 1.4-.2-.1-.4-.4-.3-.9 0-.6.3-1.4.9-2.2 1.2-1.6 3.7-3 6.4-3.4 2.7-.5 5.3-.1 7 .6 1.5.8 2.3 1.6 2.2 2zM734.4 592.6c-.1 0-.4-.3-.8-1-.2-.4-.5-.8-.8-1.4-.3-.6-.6-1.2-.9-1.9-1.3-3-3.1-7.4-4.3-13.1-1.3-5.7-2.1-12.7-2-20.4.1-7.7 1.2-16.2 3.2-24.9 2.1-8.7 4.8-16.7 7.7-23.8 2.8-7.1 5.9-13.3 7.9-18.6 2-5.3 3.1-9.8 3.4-12.9.4-3.1.3-4.9.6-5 .2 0 .7 1.7.7 5s-.7 8.1-2.5 13.6c-1.8 5.6-4.6 11.9-7.3 18.9-2.7 7.1-5.3 15-7.3 23.5s-3.2 16.7-3.4 24.2c-.2 7.5.3 14.3 1.3 19.9.9 5.6 2.3 10 3.2 13.1.2.8.5 1.4.7 2 .2.6.4 1.1.5 1.5.1.8.2 1.3.1 1.3zM881.2 749.8c-.2.4-1.2.3-2.6.3-1.4 0-3.2.1-5.4.5-1.1.2-2.2.3-3.1.5-.9.1-1.7.3-2.3.4-.6.2-1 .4-1.3.6-.3.2-.6.4-.8.3-.2-.1-.4-.4-.3-.9.1-.6.5-1.3 1.3-1.9.7-.6 1.7-1.1 2.8-1.4 1.1-.3 2.1-.6 3.3-.7 2.4-.4 4.8-.2 6.4.5 1.5.4 2.2 1.4 2 1.8zM875.9 740.2c-.3.9-2.9.7-5.9.9-3 .1-5.5.5-5.9-.4-.2-.4.3-1.1 1.3-1.7 1-.6 2.6-1.1 4.4-1.2 1.8-.1 3.5.3 4.5.8 1.2.5 1.7 1.2 1.6 1.6zM894.8 698.4c-1 0-1.1-15.7-4.1-34.8-2.9-19.1-7.6-34.1-6.6-34.4.4-.1 2.1 3.5 4.1 9.5 1 3 2.1 6.7 3.1 10.8 1 4.1 1.9 8.7 2.7 13.5.7 4.8 1.2 9.5 1.5 13.7.3 4.2.4 8 .4 11.2-.2 6.6-.7 10.5-1.1 10.5zM690.3 926.6c-.4 0-1-5.8-.9-15.3 0-2.4.1-5 .2-7.7.1-2.8.4-5.7.6-8.9.6-6.2 1.5-13.1 2.7-20.2 1.3-7.1 2.9-13.8 4.5-19.9.9-3 1.7-5.9 2.5-8.5.8-2.7 1.7-5.1 2.5-7.3 3.2-8.9 5.8-14.1 6.2-14 .5.2-1.4 5.7-4 14.7-.7 2.2-1.4 4.7-2.1 7.4-.8 2.6-1.4 5.5-2.2 8.5-1.5 6-2.9 12.7-4.2 19.7-1.3 7-2.2 13.8-3 19.9-.3 3.1-.7 6-.9 8.7-.3 2.7-.5 5.3-.6 7.6-.6 9.5-.8 15.3-1.3 15.3zM679.2 892.7c-.8-.1.3-17.2 5-37.8 4.7-20.6 11.1-36.5 11.9-36.2.9.3-4.1 16.6-8.7 37-4.7 20.3-7.2 37.1-8.2 37z"></path></g><g><path fill="#b5bfc4" d="M810.2 1081.5c-2.8-7.4-7.7-24.2 0-37.1 11.5-19.3 48.8-26.3 86.7-5.4-1.3-1.5-2.6-3.1-3.9-4.6-1.2-2.8-8.8-20.7 0-39.5 9.4-20 31.5-24.8 41.8-27.1 33-7.3 60 9.8 66.6 13.9 13.4 8.5 22.1 18.7 27.1 25.5 3.9-4.6 7.9-7.1 10.8-8.5 15-7.1 32 2.2 42.6 7.7 6.5 3.5 16.5 9.8 26.3 20.9 5.8-2.8 15.5-6.7 27.9-7.7 10.7-.9 28.5-2.4 39.5 9.3 1.3 1.4 9 9.6 7.7 20.9-1.1 9.9-8.6 18.6-19.3 22.4-33.3 3.1-60.2 5.9-77.4 7.7-126 13.6-175 23.8-245.3 9.3-13.7-2.8-24.5-5.8-31.1-7.7zM380.5 725.7c-18.3-5.8-29.7-19.8-28.8-32.8 1.1-16.2 21.1-24.5 26.9-26.9 30.2-12.5 61.2 5.7 66.8 9.2-2.6-2.1-8.4-7.4-8.5-14.4-.2-12.1 16.3-19.7 20.3-21.6 26.8-12.5 58.7 6.6 64.9 10.5-13.5-1.9-23.6-10.5-25.6-21-1.9-10.5 5.1-18.8 5.9-19.7 11-12.5 31.7-9.6 43.9-7.9 4.9.7 27.5 4.2 50.5 22.3 14.1 11.1 22.7 23.3 27.5 31.5 6-1.7 21.6-5.1 38 2 5.5 2.4 15.6 6.8 21 17.7 3.4 6.8 3.5 13.4 3.3 17 .9-.3 6.7-2.4 11.8.7 6.8 4 7.9 14 4.6 19-3.9 5.9-14.2 5.4-17.7 5.2-21.3-.7-138 3.2-304.8 9.2zM889.7 387.7c-4.5-4.2-5.5-10.8-2.5-15.7 2.4-3.9 7.1-6.1 11.9-5.6-.8-5-1.8-15.9 4.4-25.7 11.3-17.8 40.1-16.4 54.5-13.2 4.2.9 7.6 2.2 10 3.1-2.5-4.8-5.4-12.5-3.1-20.4 5.9-20.1 41-22.5 45.7-22.9 17.3-1.2 31.9 3.8 42 8.8 2.5-3.9 7-9.7 14.4-13.2 13.4-6.4 27.3-1.2 40.7 3.8 9.8 3.6 25.3 10.9 41.3 25.7 2.8-1.4 7.3-3.4 13.2-4.4 25.6-4.4 45.3 15.2 46.4 16.3 2.9 3 6.4 7.3 9.4 13.2.8-.5 8.5-4.9 16.9-1.3 5.8 2.5 11 8.6 10.6 15.7-.4 8.1-8.1 15.4-18.2 15.7-22.7 2-153.4 13.5-202.3 14.4-26.5.5-37.6.6-37.6.6-29.8.3-36.8 0-51.4.6-11 .6-27 1.7-46.3 4.5z"></path><path stroke="#000" stroke-miterlimit="10" d="M914.9 1017.8c-.2.6-7.7-1.9-20.2-3.6-6.2-.7-13.7-1.3-22-1-8.3.3-17.4 1.5-26.7 3.8-18.6 4.6-34.2 13.1-44 20.7-4.8 3.9-7.6 8.2-8.6 11.5-.3.8-.4 1.6-.5 2.2-.1.7-.2 1.2-.2 1.7 0 .9-.1 1.4-.2 1.4s-.3-.5-.5-1.4c-.1-.5-.1-1.1-.1-1.8.1-.7.1-1.5.3-2.4.3-1.8 1.2-4 2.6-6.2 1.4-2.2 3.3-4.5 5.7-6.7 1.2-1.1 2.5-2.2 3.9-3.2 1.4-1.1 3-2 4.5-3.1.8-.5 1.6-1.1 2.4-1.6.8-.5 1.7-1 2.6-1.5 1.8-1 3.5-2.1 5.4-3 7.6-3.9 16.3-7.3 25.9-9.7 9.5-2.4 18.9-3.5 27.4-3.7 8.5-.2 16.1.6 22.5 1.7 6.3 1.1 11.3 2.5 14.7 3.7 3.4 1.2 5.2 2 5.1 2.2zM1041.5 1023.1c-.2.1-1.9-2.4-4.9-7-3.3-4.4-7.8-10.9-14.7-17.9-6.8-7-15.7-14.6-26.7-21.4l-1-.7-1.1-.6-2.1-1.2c-1.4-.8-2.9-1.6-4.4-2.4-1.5-.7-3.1-1.5-4.6-2.2-.8-.4-1.6-.8-2.3-1.1-.8-.4-1.6-.7-2.4-1-1.6-.7-3.3-1.3-4.9-2-1.6-.7-3.4-1.2-5.1-1.8-3.4-1.3-7-2.1-10.5-3.1-.9-.3-1.8-.5-2.7-.6-.9-.2-1.8-.4-2.7-.5-.9-.2-1.8-.4-2.7-.5l-1.3-.3-1.3-.2c-3.6-.5-7.1-1-10.6-1.2-1.7-.1-3.5-.3-5.2-.3h-5.1c-3.4.1-6.6.3-9.8.8-6.3.9-12.2 2.6-17.3 5-2.5 1.2-4.9 2.6-6.9 4.2-1.1.7-2 1.6-2.9 2.4-.9.9-1.8 1.7-2.5 2.7-3.2 3.6-5.2 7.5-6.6 11-1.3 3.6-1.8 6.9-1.9 9.6v1.9c0 .6.1 1.2.1 1.7.2 1 .3 1.9.4 2.6.3 1.4.5 2.2.3 2.2s-.4-.7-1-2c-.2-.7-.4-1.6-.7-2.6-.1-.5-.2-1.1-.3-1.7 0-.3-.1-.6-.1-1v-1c-.1-2.8.2-6.3 1.4-10.2 1.2-3.8 3.3-8 6.5-11.9.8-1 1.7-1.9 2.6-2.9 1-.9 1.9-1.9 3.1-2.7 2.2-1.7 4.6-3.3 7.3-4.6 5.3-2.7 11.5-4.6 18-5.6 3.3-.5 6.7-.8 10.1-.9 1.7-.1 3.5-.1 5.2 0 1.8 0 3.5.2 5.3.3 3.6.1 7.2.7 10.9 1.1l1.4.2 1.4.3c.9.2 1.8.4 2.8.5.9.2 1.8.4 2.8.6.9.2 1.9.4 2.8.6 3.7 1 7.3 1.9 10.8 3.2 1.7.6 3.5 1.1 5.2 1.8 1.7.7 3.4 1.4 5 2.1.8.4 1.7.7 2.5 1.1l2.4 1.2c1.6.8 3.1 1.6 4.7 2.3 1.5.8 3 1.7 4.4 2.5.7.4 1.5.8 2.2 1.3l1.1.6 1 .7c11.1 7.1 20 15 26.7 22.4 6.8 7.3 11.1 14.1 14.1 18.8 2.7 4.6 4 7.3 3.8 7.4z"></path><path stroke="#000" stroke-miterlimit="10" d="M1120.4 1050.1c-.2.1-1-1.4-2.3-4-1.3-2.6-3.3-6.4-6.1-10.8s-6.6-9.4-11.4-14.3c-4.8-4.9-10.8-9.7-17.7-13.4-7-3.8-14.2-6.2-20.9-7.4-3.4-.6-6.6-.9-9.7-1.1-3.1-.1-5.9 0-8.5.3-5.2.4-9.2 1.8-11.5 3.4-2.4 1.6-3.2 3.1-3.4 2.9-.1-.1 0-.5.4-1.2s1.1-1.7 2.3-2.7c1.2-1 2.8-2 4.8-2.9 2-.8 4.5-1.5 7.1-1.8 2.7-.5 5.6-.7 8.8-.7 3.2 0 6.6.2 10.1.8 7.1 1.1 14.7 3.6 22 7.5 7.3 3.9 13.5 9 18.4 14.2 4.9 5.2 8.6 10.5 11.2 15.2 2.7 4.7 4.3 8.7 5.3 11.5.9 2.8 1.2 4.5 1.1 4.5zM1169.3 1070.3c-.2-.2.9-1.4 2.9-3.5 2-2.2 5-5.2 7.7-9.5 1.3-2.1 2.5-4.7 3.2-7.5.7-2.8.9-5.9 0-9-.9-3-2.7-6-5.2-8.5-1.3-1.3-2.7-2.5-4.2-3.6-.7-.6-1.6-1-2.4-1.6l-1.2-.8c-.4-.2-.8-.5-1.3-.7-6.8-3.7-14.2-5.4-20.9-6-6.7-.5-12.9 0-18 1-2.5.5-4.8 1-6.8 1.6-1 .3-1.9.6-2.8.8-.8.3-1.6.5-2.2.8-2.6 1.1-3.2 2.7-3.4 2.6-.1 0-.1-.5.3-1.2s1.2-1.7 2.5-2.5c.7-.4 1.4-.8 2.3-1.1.8-.3 1.8-.7 2.7-1.1 2-.7 4.3-1.4 6.9-2.1 5.2-1.3 11.6-2.1 18.7-1.7 7.1.5 14.9 2.2 22.2 6.2.5.2.9.5 1.4.7l1.3.8c.9.6 1.7 1.1 2.5 1.7 1.6 1.2 3.2 2.5 4.5 4 2.8 2.9 4.9 6.3 5.8 10 .9 3.7.6 7.4-.3 10.5-.9 3.1-2.3 5.8-3.9 8-3.1 4.4-6.5 7.2-8.7 9.1-2.1 1.8-3.5 2.7-3.6 2.6zM1161 1076.3c0 .1-1.3.3-3.8.5s-6.1.6-10.8.9c-9.4.7-23.1 1.7-39.9 2.8-33.7 2.2-80.3 5-131.8 7.9-25.7 1.4-50.3 2.8-72.6 3.9-22.3 1-42.6 1.3-59.5-.7-8.5-1-16-2.5-22.5-4.3-1.6-.5-3.2-.9-4.7-1.5-1.5-.5-2.9-1-4.3-1.6-2.7-1.2-5-2.6-6.9-4.1-3.8-3-5.8-6.5-6.1-9.1 0-.3-.1-.6-.1-.9v-.8c0-.5 0-.9.1-1.2.1-.6.2-.9.3-.9.2 0-.2 1.3.3 3.7.4 2.4 2.5 5.5 6.2 8.2 1.9 1.3 4.1 2.6 6.7 3.7 1.3.5 2.7 1 4.2 1.4 1.5.5 3 .9 4.6 1.3 6.5 1.7 13.9 3 22.3 3.8 16.7 1.6 36.8 1.2 59.1 0 22.3-1.3 46.8-2.7 72.6-4.2 51.5-2.9 98.1-5.4 131.9-7 16.9-.8 30.5-1.4 40-1.7 4.7-.2 8.4-.3 10.9-.3s3.8.1 3.8.2zM938.6 1098.5c0 .2-1.9.7-5.4 1.4-1.7.4-3.9.8-6.4 1.2-2.5.4-5.4.9-8.5 1.2-1.6.2-3.2.4-5 .6-1.7.2-3.5.4-5.4.6-3.7.4-7.7.7-12 1-8.4.5-17.7.8-27.5.7-9.8-.2-19-.7-27.5-1.4-4.2-.4-8.2-.8-11.9-1.3-1.9-.2-3.7-.5-5.4-.7-1.7-.3-3.4-.5-5-.8-3.2-.5-6-1-8.5-1.5s-4.6-.9-6.4-1.3c-3.5-.8-5.4-1.4-5.3-1.6.1-.5 7.9.7 20.5 2.1 1.6.2 3.2.4 5 .6 1.7.2 3.5.3 5.4.5 3.7.4 7.7.7 11.9 1 8.4.6 17.6 1 27.3 1.2 9.7.1 18.9-.1 27.3-.4 4.2-.2 8.2-.4 11.9-.7 1.9-.1 3.7-.2 5.4-.4 1.7-.1 3.4-.3 5-.4 12.6-1.1 20.4-2.1 20.5-1.6zM829.8 1004.4c.2.4-3.8 2.2-10 5.3-3.1 1.5-6.8 3.4-10.8 5.6-4 2.2-8.4 4.7-12.6 7.7-4.2 3-7.6 6.5-10.1 10.2-2.5 3.6-4.3 7.3-5.4 10.5-1.2 3.2-1.7 5.9-2.1 7.8-.4 1.9-.6 3-.8 3-.2 0-.4-1.1-.4-3.1s.2-4.9 1.2-8.3c.9-3.5 2.5-7.5 5.1-11.5 2.6-4 6.2-8 10.7-11.2 4.4-3.2 9-5.6 13.1-7.7 4.1-2.1 8-3.8 11.2-5.1 6.5-2.6 10.7-3.6 10.9-3.2zM476.9 687.8c-.1.2-2.7-1-7.2-3.2-4.6-2.2-11.1-5.4-19.5-8.8-8.3-3.4-18.4-7.1-30-9.6-11.5-2.4-24.7-3.6-38.1-1.7-6.7 1-13.2 2.6-19.1 4.9-5.9 2.3-11.4 5.3-15.4 9.3-2 2-3.6 4.3-4.7 6.7-1.1 2.4-1.7 5-1.9 7.5-.4 5 .7 9.8 2.6 13.7 1.9 3.9 4.5 7 7.1 9.3 2.6 2.3 5.2 4 7.4 5.2 4.4 2.4 7.1 3.1 7 3.4 0 .2-2.9-.2-7.6-2.3-2.3-1.1-5.1-2.6-8-4.9-2.8-2.3-5.8-5.5-8-9.7-2.2-4.2-3.6-9.3-3.3-14.9.2-2.8.8-5.7 2-8.5s3-5.3 5.2-7.6c4.4-4.5 10.2-7.7 16.4-10.1 6.2-2.5 12.9-4.2 19.8-5.2 13.9-1.9 27.4-.6 39.2 2 11.8 2.7 22 6.6 30.3 10.4 8.3 3.7 14.7 7.3 19.1 9.8 4.4 2.5 6.8 4.1 6.7 4.3z"></path><path stroke="#000" stroke-miterlimit="10" d="M542.8 663.4c-.1.2-1.8-1-4.7-3.1-1.5-1-3.3-2.2-5.4-3.7-1.1-.7-2.2-1.4-3.5-2.1-.6-.4-1.2-.8-1.9-1.2-.7-.4-1.4-.7-2.1-1.1-5.6-3.1-12.5-6.3-20.6-8.8-8-2.5-17.2-4.4-26.9-4.9-9.7-.6-19 .1-27.2 1.8-4.1.8-8 1.9-11.4 3.3-3.4 1.4-6.3 3.2-8.7 5.2-2.3 2-4 4.3-5.1 6.5-1.1 2.2-1.7 4.2-2 6-.5 3.5 0 5.4-.3 5.5-.1.1-1.2-1.9-1-5.6.1-1.9.6-4.2 1.6-6.6 1.1-2.4 2.8-5.1 5.2-7.4 2.4-2.3 5.6-4.4 9.1-6 3.6-1.6 7.6-2.8 11.8-3.7 8.5-1.9 18.1-2.7 28.1-2.1 10 .6 19.4 2.6 27.6 5.3 8.2 2.7 15.2 6.3 20.8 9.7.7.4 1.4.8 2 1.2.6.4 1.3.9 1.9 1.3 1.2.8 2.4 1.6 3.4 2.4 2 1.6 3.8 3 5.2 4.2 2.9 2.3 4.3 3.8 4.1 3.9z"></path><path stroke="#000" stroke-miterlimit="10" d="M635.7 686.6c-.1 0-.4-.7-.9-2s-1.1-3.3-2.1-5.8c-1.9-5-4.8-12.2-9.4-20.6-1.1-2.1-2.5-4.2-3.8-6.4-1.5-2.2-2.9-4.5-4.6-6.7-1.6-2.3-3.5-4.5-5.3-6.8-1-1.1-2-2.2-3-3.4-1-1.1-2.1-2.2-3.2-3.4-8.8-8.9-20.2-17.2-33.7-22.4-13.4-5.3-27.4-7.1-39.9-6.1-6.2.5-12.1 1.6-17.4 3.2-1.3.4-2.6.9-3.9 1.3-.6.2-1.3.4-1.9.7-.6.3-1.2.5-1.8.8-1.2.5-2.4 1-3.5 1.5s-2.2 1.1-3.2 1.7c-4.1 2.3-7.6 4.9-10.2 7.5-2.7 2.6-4.6 5.2-5.9 7.5-.6 1.2-1.2 2.2-1.5 3.1-.3.9-.4 1.8-.3 2.4.2 1.3.9 1.7.8 1.8 0 0-.2 0-.5-.2s-.7-.7-.9-1.5c-.2-.7-.2-1.7 0-2.8.2-1.1.8-2.2 1.3-3.5 1.2-2.5 3-5.4 5.7-8.2 2.7-2.9 6.2-5.7 10.4-8.2 1-.6 2.1-1.3 3.3-1.8 1.1-.6 2.3-1.1 3.5-1.7.6-.3 1.2-.6 1.8-.8.6-.3 1.3-.5 1.9-.8 1.3-.5 2.6-1 4-1.5 5.5-1.8 11.5-3 18-3.6 12.9-1.2 27.4.6 41.3 6.1 7 2.7 13.4 6.2 19.2 10.2 5.8 4 10.9 8.5 15.4 13.1 1.1 1.2 2.2 2.3 3.3 3.5 1 1.2 2 2.4 3 3.5 1.9 2.4 3.7 4.7 5.3 7.1 1.7 2.3 3.1 4.7 4.5 6.9 1.3 2.3 2.6 4.5 3.7 6.7 4.5 8.6 7.1 16.1 8.6 21.3.8 2.6 1.2 4.6 1.5 6 .4 1.6.5 2.3.4 2.3z"></path><path stroke="#000" stroke-miterlimit="10" d="M684.1 704.6c-.2 0-.2-1.4-.1-3.8s.3-5.9.2-10.2c-.2-4.3-.8-9.4-3-14.5-1.1-2.5-2.5-5.1-4.4-7.3-1.9-2.3-4.2-4.2-7-5.8-2.7-1.6-5.7-2.7-8.6-3.7-2.9-.9-5.8-1.7-8.6-2.2-5.6-1.1-10.7-1.4-15-1.4-4.3 0-7.8.4-10.2.6-1.1.2-1.9.5-2.3.9-.4.4-.5.7-.6.7-.1 0-.2-.4.1-1.1.4-.7 1.3-1.3 2.6-1.7 2.4-.7 5.9-1.4 10.4-1.7 4.4-.3 9.8-.2 15.6.7 2.9.5 5.9 1.2 9 2.1 3.1 1 6.2 2.2 9.3 3.9 3 1.7 5.8 4 7.9 6.6 2.1 2.6 3.6 5.4 4.7 8.3 2.2 5.7 2.6 11.1 2.5 15.6-.1 4.5-.7 8-1.2 10.4-.6 2.3-1 3.6-1.3 3.6zM687.6 716.6c0 .1-1.1.3-3.2.4-2.1.2-5.2.4-9.2.6-8 .4-19.6.9-33.9 1.5-28.6 1.1-68.2 2.4-111.9 3.6-21.9.6-42.7 1.1-61.6 1.6-18.9.4-36 .8-50.3 1.6-14.3.7-25.8 1.8-33.8 2.7-7.9.9-12.3 1.5-12.4 1.3 0-.1 1.1-.4 3.1-.9 2.1-.5 5.1-1 9.1-1.7 7.9-1.3 19.5-2.8 33.8-3.8 14.3-1.1 31.4-1.7 50.3-2.3 18.9-.6 39.8-1.2 61.6-1.8 43.7-1.2 83.3-2.1 112-2.6 14.3-.3 25.9-.4 33.9-.4h9.2c2.2 0 3.3.1 3.3.2zM700.8 712.1c-.4-.3.5-1.7 1.1-4.1.6-2.3.8-5.8-.6-9.1-1.4-3.2-4.1-5.4-6.3-6.6-2.2-1.2-3.8-1.5-3.8-2 0-.4 1.8-.9 4.6-.2 1.4.4 3 1.1 4.5 2.4 1.5 1.2 3 2.9 3.9 5 .9 2.1 1.2 4.3 1.1 6.3-.1 2-.7 3.6-1.3 4.9-1.3 2.7-2.9 3.7-3.2 3.4zM385.9 653.4c-.1.5-5-.1-12.8.4-2 .1-4.1.4-6.4.7-2.3.4-4.7.8-7.1 1.6-4.9 1.4-10.2 3.6-15 6.9-2.4 1.7-4.5 3.6-6.4 5.6-1.9 2-3.4 4.2-4.8 6.3-2.6 4.3-4.2 8.7-4.9 12.5-.7 3.8-.7 7-.5 9.1v.8c0 .2.1.5.1.7 0 .4.1.8.1 1.1 0 .6 0 .9-.1 1-.1 0-.3-.2-.5-.8-.1-.3-.3-.6-.4-1-.1-.2-.1-.4-.2-.7-.1-.2-.1-.5-.2-.8-.6-2.2-.9-5.6-.5-9.7s1.9-8.9 4.6-13.7c1.4-2.4 3-4.8 5-7s4.3-4.3 6.9-6.1c5.2-3.6 10.8-5.9 16.1-7.2 2.6-.7 5.2-1 7.5-1.3 2.4-.2 4.6-.3 6.6-.3 4.1 0 7.3.4 9.5.8 2.3.5 3.5.9 3.4 1.1zM453.2 748.4c-.1.5-6 0-15.5-.9s-22.7-2.3-37.2-3.5c-7.2-.6-14.1-.9-20.4-.7-6.3.1-11.9.7-16.5 1.6-4.6.8-8.3 1.9-10.9 2.7-2.5.8-4 1.3-4.1 1-.1-.2 1.2-1 3.6-2.2 2.5-1.1 6.1-2.6 10.9-3.8 4.7-1.2 10.5-2 16.9-2.3 6.4-.3 13.4-.1 20.8.5 14.6 1.2 27.8 2.9 37.2 4.4 9.4 1.5 15.2 2.8 15.2 3.2zM897.8 365.6c.1.2-.5.7-1.6 1.3-1.1.6-2.8 1.5-4.7 2.6-1.9 1.1-4.1 2.7-5.6 4.8-1.6 2.1-2.6 5.2-1.9 8 .3 1.4 1.1 2.5 2.1 3.4 1 .9 2.4 1.5 3.7 2 2.7.9 5.4 1.3 7.6 1.5 4.4.4 7.3.1 7.4.6.1.4-2.7 1.5-7.5 1.7-2.4 0-5.2-.1-8.4-1-1.6-.5-3.3-1.1-4.8-2.4-1.5-1.2-2.8-3-3.3-5.1-.5-2.1-.3-4.1.2-5.9.5-1.8 1.4-3.4 2.5-4.7 2.2-2.7 4.8-4.1 7-5.1s4-1.5 5.3-1.7c1.2-.1 1.9-.2 2 0z"></path><path stroke="#000" stroke-miterlimit="10" d="M1000.8 350.9c-.1.2-2-1-5.4-3.2-3.4-2.2-8.2-5.4-14.4-8.8-6.2-3.5-13.8-7.3-22.6-10.7-8.7-3.4-18.8-6.3-29.5-6.4-2.7 0-5.3.1-7.8.5-.6.1-1.3.2-1.9.3-.6.1-1.2.3-1.9.4-1.2.3-2.4.6-3.6 1-2.4.7-4.6 1.8-6.7 2.9-1 .6-2.1 1.1-3.1 1.8-.5.3-1 .6-1.5 1s-.9.7-1.4 1c-3.6 2.8-6.5 6.1-8.6 9.6-2.1 3.5-3.2 7.1-3.8 10.5-.5 3.4-.1 6.5 1 9 1 2.5 2.8 4.1 4.4 5.1 1.6 1 3.1 1.3 4.1 1.4 1 .1 1.6.1 1.6.2s-.5.4-1.6.5c-1.1.1-2.8 0-4.7-1-1.9-.9-4.1-2.7-5.4-5.4-1.4-2.7-1.9-6.3-1.6-10 .4-3.7 1.5-7.7 3.7-11.6 2.1-3.9 5.2-7.5 9-10.6l1.5-1.2c.5-.4 1-.7 1.5-1.1 1-.7 2.2-1.3 3.3-2 2.3-1.2 4.7-2.4 7.2-3.2 1.3-.5 2.6-.8 3.9-1.2.7-.1 1.3-.3 2-.4.7-.2 1.4-.3 2-.3 2.7-.4 5.5-.6 8.3-.6 5.6 0 11.1.9 16.2 2.1 5.1 1.3 9.9 2.9 14.4 4.7 8.9 3.7 16.5 7.8 22.7 11.5 6.2 3.8 10.9 7.3 14 9.8 3.3 2.7 4.8 4.3 4.7 4.4z"></path><path stroke="#000" stroke-miterlimit="10" d="M1096.4 335.9c-.1.1-.6-.4-1.4-1.3-.8-.9-2.1-2.3-3.7-4-3.2-3.5-7.9-8.5-14.3-14.1-3.2-2.8-6.8-5.8-10.7-8.7-4-3-8.4-6-13.1-8.9-4.8-2.9-9.9-5.7-15.4-8.3-5.5-2.6-11.3-5-17.4-6.8-6.1-1.8-12.3-3-18.3-3.2-6-.2-11.7.6-16.9 2.3-5.2 1.7-9.8 4.2-13.5 7.3-3.7 3.1-6.5 6.7-8.2 10.4-1.8 3.7-2.7 7.4-3 10.7-.3 3.3-.1 6.1.4 8.4.9 4.6 2.5 6.8 2.2 7-.1.1-.5-.5-1.2-1.5-.3-.5-.7-1.3-1.1-2.1-.2-.4-.4-.9-.6-1.4-.2-.5-.4-1-.5-1.6-.7-2.3-1.2-5.3-1-8.8.2-3.5.9-7.5 2.7-11.5.9-2 2.1-4 3.5-6s3.2-3.8 5.1-5.5c3.9-3.5 8.8-6.2 14.3-8.1 5.5-1.9 11.6-2.8 18-2.6 6.3.2 12.8 1.3 19.1 3.2 6.3 1.9 12.3 4.4 17.9 7.1 5.6 2.7 10.8 5.6 15.6 8.6 4.8 3 9.2 6.2 13.2 9.3 4 3.1 7.5 6.2 10.6 9.2 6.2 5.9 10.8 11.2 13.7 15 1.5 1.9 2.6 3.4 3.3 4.5.4.8.8 1.3.7 1.4z"></path><path stroke="#000" stroke-miterlimit="10" d="M1174.1 341c-.5.3-5.1-6.7-14.5-16.4-4.7-4.8-10.5-10.3-17.6-15.7-7.1-5.4-15.2-10.8-24.4-15.3-9.2-4.6-18.3-8.1-26.9-10.4-4.3-1.1-8.4-1.8-12.2-1.8-3.9-.1-7.4.5-10.5 1.6-3.1 1.1-5.6 2.7-7.6 4.3-2 1.7-3.4 3.5-4.3 5-.5.8-.8 1.5-1.1 2.1-.1.3-.3.7-.4.9-.1.1-.1.3-.2.4v.2c0 .4.3.7.4.8.1.1.1 0 .2 0 0 0 .1 0 .1.1 0 0 0 .1-.1.2s-.2.1-.3.1c-.3-.1-.7-.3-1-.9-.1-.2-.1-.3 0-.6 0-.1.1-.3.1-.5.1-.3.1-.6.2-1 .2-.7.5-1.6.9-2.4.8-1.8 2.2-3.8 4.2-5.8 2-1.9 4.7-3.8 8-5.1 3.3-1.4 7.2-2.1 11.3-2.2 4.1-.1 8.5.5 13 1.6 8.9 2.2 18.2 5.7 27.6 10.4 9.4 4.7 17.7 10.3 24.8 15.9 7.1 5.6 12.9 11.4 17.4 16.5 2.3 2.5 4.2 5 5.9 7.1 1.6 2.2 3 4.1 4 5.7 2.1 3.2 3.1 5 3 5.2z"></path><path stroke="#000" stroke-miterlimit="10" d="M1224.1 351.9c-.5.2-2.2-5.1-6.9-12.5-2.3-3.7-5.5-7.8-9.6-11.8-4.1-4-9.2-7.9-15-10.9-5.9-3-11.9-5-17.6-6-5.6-1.1-10.9-1.3-15.2-1.1-8.7.4-14 2-14.2 1.5-.1-.2 1.2-.8 3.6-1.6 2.4-.8 6-1.7 10.5-2.2 4.5-.5 9.9-.5 15.9.5 5.9.9 12.3 2.9 18.5 6.1 6.2 3.3 11.4 7.4 15.6 11.7 4.2 4.3 7.3 8.8 9.5 12.8s3.5 7.4 4.2 9.8c.7 2.3.9 3.7.7 3.7zM1245.1 351.8c-.5-.2.5-2.2-.4-5.2-.7-2.9-3.4-6.7-7.7-8.4-2.2-.9-4.5-1.3-6.6-1.5-2.1-.2-4.1-.2-5.8-.3-.8 0-1.6-.1-2.3-.1-.6-.1-1 0-1.4.1-.3.1-.6.2-.7.4-.1.2-.1.3-.2.2-.1 0-.3-.2-.3-.5-.1-.3.1-.8.6-1.2.5-.4 1.2-.7 1.9-.8.7-.1 1.4-.3 2.3-.4 1.7-.2 3.8-.5 6.1-.4 2.3.1 5 .4 7.6 1.5 1.3.5 2.6 1.2 3.7 2.1 1.1.9 2 1.8 2.7 2.8 1.5 2 2.2 4.2 2.4 6.1.2 1.9-.3 3.5-.8 4.4-.4.9-.9 1.3-1.1 1.2zM1228.6 367.8c0 .1-.9.5-2.9 1.1-1.9.6-4.8 1.3-8.5 2.1s-8.3 1.5-13.7 2.1c-5.4.7-11.4 1.3-18.2 2-27 2.8-64.3 5.7-105.6 7.4-41.3 1.7-78.8 1.8-105.9 1.2-6.8-.1-12.9-.3-18.3-.5s-10-.3-13.8-.5c-3.8-.2-6.7-.4-8.7-.5-2-.2-3-.3-3-.4 0-.1 1.1-.2 3-.3 2-.1 4.9-.1 8.7-.1h32.1c27.1 0 64.5-.5 105.7-2.2 41.3-1.7 78.6-4.3 105.5-6.5 6.7-.5 12.9-1 18.2-1.5 5.3-.5 9.9-1 13.7-1.6 7.6-1 11.6-2 11.7-1.8zM1027.1 395.4c0 .5-6.8.6-17.6.8-5.4.1-11.9.3-19.1.5-7.2.3-15.1.7-23.3 1.2-8.3.6-16.1 1.2-23.3 1.9-7.2.7-13.6 1.4-19 2-10.8 1.2-17.5 2-17.6 1.6-.1-.4 6.5-2 17.3-3.8 5.4-.9 11.8-1.8 19-2.7 7.2-.8 15.1-1.6 23.4-2.1 8.3-.5 16.3-.8 23.5-.9 7.2-.1 13.7 0 19.2.2 10.8.1 17.6.8 17.5 1.3zM930.5 311.4c0 .5-4.1.4-10.5 1.1-6.4.7-15.2 2.5-24.2 6.4-9 4-16.5 9-20.6 13.8-2.1 2.4-3.4 4.6-4.2 6.2-.2.4-.4.7-.5 1-.1.3-.1.5-.1.7 0 .5.3.5.2.5-.1.1-.6.2-.8-.4-.1-.2-.2-.6-.2-1 0-.1 0-.2.1-.4 0-.1 0-.2.1-.3 0-.2.1-.4.1-.6.5-1.8 1.5-4.5 3.6-7.2 2-2.8 5-5.6 8.6-8.2 3.6-2.6 7.8-5.1 12.5-7.1 9.4-4.1 18.7-5.6 25.4-5.7 6.5-.1 10.6.8 10.5 1.2z"></path></g></svg>